<?xml version="1.0" encoding="UTF-8"?>
<svg width="359px" height="329px" viewBox="0 0 359 329" version="1.1" xmlns="http://www.w3.org/2000/svg" xmlns:xlink="http://www.w3.org/1999/xlink">
    <!-- Generator: Sketch 42 (36781) - http://www.bohemiancoding.com/sketch -->
    <title>1</title>
    <desc>Created with Sketch.</desc>
    <defs>
        <rect id="path-1" x="0" y="0" width="359" height="329"></rect>
        <mask id="mask-2" maskContentUnits="userSpaceOnUse" maskUnits="objectBoundingBox" x="0" y="0" width="359" height="329" fill="white">
            <use xlink:href="#path-1"></use>
        </mask>
    </defs>
    <g id="variations-SVG" stroke="none" stroke-width="1" fill="none" fill-rule="evenodd">
        <g id="faceforms/beards" transform="translate(-3.000000, -67.000000)">
            <g id="1-new" transform="translate(3.000000, 67.000000)">
                <g id="1">
                    <use id="Rectangle" stroke="#FFFFFF" mask="url(#mask-2)" stroke-width="2" opacity="0.01" xlink:href="#path-1"></use>
                    <path d="M231.155983,247.604221 L124.845725,247.604221 C126.283141,260.81841 132.354777,289.221263 116.211683,310.433888 L116.211683,328 L239.789762,328 L239.789762,310.433888 C223.64693,289.221263 229.718803,260.81841 231.155983,247.604221 Z" id="body_color_path" fill="#E8AC83" fill-rule="nonzero"></path>
                    <path  style="opacity: 0.3" class="color-burn-path" id="body_color_path"  d="M178.083327,320.979363 C200.618404,320.979363 220.042743,299.198473 228.939807,274.980134 C228.755928,263.985215 230.541907,254.010024 231.238456,247.604221 L124.928198,247.604221 C125.625009,254.010024 127.410726,263.985215 127.226978,274.980658 C136.123884,299.198473 155.54838,320.979363 178.083327,320.979363 Z" fill="#CC8F61" fill-rule="nonzero"></path>
                    <g id="Group" transform="translate(92.044558, 74.650110)" fill-rule="nonzero">
                        <g transform="translate(0.000000, -0.000000)" id="body_color_path" fill="#E8AC83">
                            <path d="M158.417994,101.257615 C158.537835,101.13072 162.251138,78.0682344 162.278804,67.5384943 C162.374572,32.527157 135.142075,15.7635615 123.980165,8.97463287 C118.680155,5.75176216 102.099154,0.00702790358 85.5184153,0.00702790358 C68.9375454,0.00702790358 52.3566754,5.75173594 47.0569018,8.97463287 C35.8904022,15.767259 9.97852169,32.5245871 10.0694386,67.5384943 C10.0973405,78.0682344 13.8103812,101.13072 13.9299867,101.257615 C18.9554419,122.34989 21.2379837,150.561138 21.2379837,150.561138 C21.2379837,150.561138 27.104972,183.484454 34.1469314,197.970144 C43.1880409,216.566816 54.1667015,211.363099 57.1575465,216.084093 C61.6624064,223.19544 73.3864181,231.625358 85.1347652,231.649431 C96.9640381,231.674265 108.818905,223.244084 113.354761,216.084093 C116.338972,211.37385 127.686781,216.669507 137.077581,198.098455 C144.431443,183.556962 150.585762,150.561165 150.585762,150.561165 C150.585762,150.561165 154.955442,118.691117 158.417994,101.257615 Z"></path>
                        </g>
                        <g transform="translate(85.750913, -0.000000)" id="Shape" fill="#D4845A">
                            <g transform="translate(29.370343, 94.142440)">
                                <path></path>
                            </g>
                        </g>
                    </g>
                </g>
            </g>
        </g>
    </g>
</svg>