<?xml version="1.0" encoding="UTF-8"?>
<svg width="359px" height="329px" viewBox="0 0 359 329" version="1.1" xmlns="http://www.w3.org/2000/svg" xmlns:xlink="http://www.w3.org/1999/xlink">
    <!-- Generator: Sketch 42 (36781) - http://www.bohemiancoding.com/sketch -->
    <title>8 chubby</title>
    <desc>Created with Sketch.</desc>
    <defs>
        <rect id="path-1" x="0" y="0" width="359" height="329"></rect>
        <mask id="mask-2" maskContentUnits="userSpaceOnUse" maskUnits="objectBoundingBox" x="0" y="0" width="359" height="329" fill="white">
            <use xlink:href="#path-1"></use>
        </mask>
    </defs>
    <g id="variations-SVG" stroke="none" stroke-width="1" fill="none" fill-rule="evenodd">
        <g id="faceforms/beards" transform="translate(-3.000000, -5110.000000)">
            <g id="8-chubby" transform="translate(3.000000, 5110.000000)">
                <g id="portrait" transform="translate(94.000000, 49.000000)">
                    <g id="Group" transform="translate(0.142440, 126.000000)">
                        <g transform="translate(0.000000, 0.726808)"></g>
                    </g>
                    <g id="Group" transform="translate(15.000000, 198.332355)" fill-rule="nonzero">
                        <g transform="translate(0.833456, 0.000000)" id="body_color_path" fill="#D8A076">
                            <path d="M130.769846,0.246163903 L8.7803551,0.246163903 C10.2171716,13.4539662 16.285931,41.8439654 0.150237417,63.0473535 L0.150237417,80.2545707 L139.39999,80.2545707 L139.39999,63.0473535 C123.26427,41.8439654 129.333556,13.4539662 130.769846,0.246163903 Z"></path>
                        </g>
                        <g transform="translate(9.000000, 0.000000)" id="Shape" fill="#CC8F61">
                            <path  style="opacity: 0.3" class="color-burn-path" id="body_color_path"  d="M60.1182319,73.5880729 C82.6431773,73.5880729 111.495135,43.6913009 120.388142,19.484139 C120.204481,8.49405062 121.989577,6.64903294 122.685611,0.246163903 L0.696357007,0.246163903 C1.39265371,6.64905928 2.15735268,9.2960719 2.7317,20.2707256 C11.6247068,44.4775978 37.5932866,73.5880729 60.1182319,73.5880729 Z"></path>
                        </g>
                    </g>
                    <g id="Group" transform="translate(8.289068, 0.526779)">
                        <g id="body_color_path" fill-rule="nonzero" fill="#E8AC83">
                            <path d="M153.778072,66.5025244 C153.336684,49.2091019 152.460598,18.2664889 103.03391,3.10178107 C100.252621,2.24834615 88.0261031,0.195751137 76.1223953,0.224565957 C65.0057483,0.251826779 54.1705067,2.30518562 51.573143,3.10178107 C38.4805737,7.11873558 28.8161778,13.1621569 19.1556537,21.766436 C5.99362854,33.4903541 0.698576082,49.2091019 0.257451211,66.5025507 C-0.151276742,82.5250657 8.88448723,170.31068 8.88448723,170.31068 C8.88448723,170.31068 6.29288789,182.929751 6.88448723,187.473221 C7.87879985,195.114903 10.1939148,216.872952 21.7109318,229.473221 C30.5812808,239.177885 51.7375484,254.721719 59.0558303,256.186423 C61.5829992,256.692259 69.3235777,258.956186 77.0647114,258.981465 C84.9349427,259.007164 92.8057479,256.786189 95.1990969,256.321963 C103.380383,254.735327 122.834183,238.872204 132.710932,227.473221 C142.587681,216.074238 145.375214,195.370262 146.293993,188.312891 C146.885592,183.769421 146.00808,170.310654 146.00808,170.310654 C146.00808,170.310654 154.186537,82.5250394 153.778072,66.5025244 Z"></path>
                        </g>
                        <g transform="translate(118.498899, 143.000000)"></g>
                    </g>
                    <g id="Group" transform="translate(1.610418, 0.000000)"></g>
                </g>
                <g id="2">
                    <g transform="translate(136.000000, 245.000000)"></g>
                    <use id="Rectangle" stroke="#FFFFFF" mask="url(#mask-2)" stroke-width="2" opacity="0.01" xlink:href="#path-1"></use>
                </g>
            </g>
        </g>
    </g>
</svg>