<?xml version="1.0" encoding="UTF-8"?>
<svg width="359px" height="329px" viewBox="0 0 359 329" version="1.1" xmlns="http://www.w3.org/2000/svg" xmlns:xlink="http://www.w3.org/1999/xlink">
    <!-- Generator: Sketch 42 (36781) - http://www.bohemiancoding.com/sketch -->
    <title>11</title>
    <desc>Created with Sketch.</desc>
    <defs>
        <rect id="path-1" x="0" y="0" width="359" height="329"></rect>
        <mask id="mask-2" maskContentUnits="userSpaceOnUse" maskUnits="objectBoundingBox" x="0" y="0" width="359" height="329" fill="white">
            <use xlink:href="#path-1"></use>
        </mask>
    </defs>
    <g id="variations-SVG" stroke="none" stroke-width="1" fill="none" fill-rule="evenodd">
        <g id="faceforms/beards" transform="translate(-3.000000, -6004.000000)">
            <g id="11" transform="translate(3.000000, 6004.000000)">
                <path d="M124.83867,247.43876 C126.276244,260.653054 132.347513,289.056012 116.204838,310.26848 L116.204838,328.494807 L239.78318,328.494807 L239.78318,310.26848 C223.639719,289.056012 229.711775,260.653054 231.148824,247.43876 L124.83867,247.43876 Z" id="body_color_path" fill="#D8A783"></path>
                <g id="Group-2" transform="translate(64.000000, 42.000000)">
                    <path d="M114.076404,278.813902 C136.611324,278.813902 156.036135,257.032907 164.932727,232.814437 C164.749162,221.819701 166.534459,211.844799 167.231218,205.438655 L60.9210648,205.438655 C61.6178237,211.844799 63.4036455,221.819964 63.2200809,232.814962 C72.117197,257.03317 91.5414833,278.813902 114.076404,278.813902" style="opacity: 0.3" class="color-burn-path" id="body_color_path" fill="#CC976F"></path>
                    <path d="M193.563803,77.8790317 C193.126394,60.4713341 187.87461,44.6480617 174.819754,32.8469528 C165.237942,24.1853239 152.817958,18.1022538 139.832333,14.0585869 C137.073094,13.1997665 124.946289,11.1333531 113.139673,11.162199 C102.112945,11.1899959 91.3660218,13.2561471 88.7900853,14.0585869 C75.8039356,18.1022538 63.3842139,24.1853239 53.8021394,32.8469528 C40.747284,44.6480617 35.4952373,60.4713341 35.0578289,77.8790317 C34.6524133,94.0085949 35.4134199,123.647205 35.4155178,123.648778 C42,159 47.8656587,182.375829 47.8656587,182.375829 C47.8656587,182.375829 64.9944449,217.924982 78,234 C91.0055551,250.075018 95.8207711,257.90282 103.773418,258.382344 C106.413078,258.54152 122.208816,258.54152 124.849,258.382344 C133.19044,257.879376 144,242 153,231 C166.07442,215.020154 180.75676,182.375829 180.75676,182.375829 C180.75676,182.375829 187,150 193.206376,123.648778 C193.208212,123.647205 193.96948,94.0085949 193.563803,77.8790317 Z" id="body_color_path" fill="#E8B490"></path>
                    <path d="M146.522897,204.857043 C138.940104,199.29923 115.906937,198.248192 115.906937,198.248192 L115.906937,207.270394 C136.213644,207.171531 139.486078,208.676761 143.806665,214.193141 C146.743437,217.942056 142.708686,231.747953 140.007926,238.558201 C138.878216,241.4066 135.767058,245.412243 132.904498,246.675954 C127.424045,249.096385 126.539001,248.293683 122.101719,246.884431 C118.969844,245.889773 115.744613,242.873544 114.466216,240.260894 C113.187033,242.873544 109.962064,245.889773 106.830189,246.884431 C102.392121,248.293683 101.04869,249.096385 95.5679738,246.675954 C92.7054143,245.412243 89.5942558,241.406338 88.4645465,238.557677 C85.7637861,231.747428 82.0125115,217.941793 84.9492836,214.193141 C89.2701331,208.676761 92.542304,207.171531 112.84875,207.270394 L112.84875,198.248192 C112.84875,198.248192 89.816369,199.29923 82.232789,204.857043 C74.5102244,210.515817 78.8237313,229.461262 79.6185663,234.670826 C82.4677518,253.349053 87.7709344,260.967773 99.8793829,263.622118 C105.426182,264.837578 123.330029,264.837578 128.876303,263.622118 C140.985801,260.967773 146.288459,253.349053 149.137644,234.670302 C149.931955,229.460475 154.245462,210.515817 146.522897,204.857043" id="haircut_color_path" fill="#7F563F"></path>
                </g>
                <use id="Rectangle" stroke="#FFFFFF" mask="url(#mask-2)" stroke-width="2" opacity="0.01" xlink:href="#path-1"></use>
            </g>
        </g>
    </g>
</svg>