<?xml version="1.0" encoding="UTF-8"?>
<svg width="359px" height="330px" viewBox="0 0 359 330" version="1.1" xmlns="http://www.w3.org/2000/svg" xmlns:xlink="http://www.w3.org/1999/xlink">
    <!-- Generator: Sketch 42 (36781) - http://www.bohemiancoding.com/sketch -->
    <title>2 new</title>
    <desc>Created with Sketch.</desc>
    <defs>
        <rect id="path-1" x="0" y="0.00258830971" width="359" height="329"></rect>
        <mask id="mask-2" maskContentUnits="userSpaceOnUse" maskUnits="objectBoundingBox" x="0" y="0" width="359" height="329" fill="white">
            <use xlink:href="#path-1"></use>
        </mask>
    </defs>
    <g id="variations-SVG" stroke="none" stroke-width="1" fill="none" fill-rule="evenodd">
        <g id="faceforms/beards" transform="translate(-3.000000, -639.000000)">
            <g id="2-new" transform="translate(3.000000, 639.077429)">
                <g id="Group" transform="translate(116.000000, 247.330168)" fill-rule="nonzero">
                    <g transform="translate(0.907962, 0.000000)" id="body_color_path" fill="#E8AC83">
                        <path d="M115.194236,0.174150402 L8.88397816,0.174150402 C10.3216565,13.3883399 16.3930309,41.7913237 0.250198612,63.0038182 L0.250198612,80.5924032 L123.82854,80.5924032 L123.82854,63.0038182 C107.68521,41.7912975 113.757083,13.3883399 115.194236,0.174150402 Z"></path>
                    </g>
                    <g transform="translate(9.000000, 0.000000)" id="Shape" fill="#CC8F61">
                        <path  style="opacity: 0.3" class="color-burn-path" id="body_color_path"  d="M54.0298045,68.5492924 C76.56462,68.5492924 95.9894833,51.7684031 104.886022,27.5499327 C104.702668,16.5550136 106.48786,6.58008451 107.184671,0.174150402 L0.874413148,0.174150402 C1.57122454,6.58008451 3.35694142,16.5552758 3.17358656,27.5504572 C12.070624,51.7686654 31.494989,68.5492924 54.0298045,68.5492924 Z"></path>
                    </g>
                </g>
                <g id="Group" transform="translate(64.985391, 42.000000)">
                    <g transform="translate(19.143170, 11.013879)">
                        <g id="body_color_path" fill-rule="nonzero" fill="#E8AC83">
                            <path d="M174.031216,112.700458 C174.032999,112.698911 174.794373,83.0603274 174.388721,66.9308167 C173.951313,49.5229093 168.69945,33.6997942 155.644542,21.8985804 C146.062703,13.2370039 133.642903,7.15398627 120.657147,3.11021446 C117.898039,2.2515515 105.771208,0.185033163 93.9644607,0.21398393 C82.9377849,0.241885756 72.1907567,2.30790584 69.6150038,3.11021446 C56.6287229,7.15398627 44.2091848,13.2370039 34.6270841,21.8985804 C21.5721763,33.6997942 16.3200508,49.5229093 15.8826425,66.9308167 C15.4772531,83.0603274 16.2383383,112.698937 16.24041,112.700458 C24.871439,136.908692 28.6904461,171.427456 28.6904461,171.427456 C28.6904461,171.427456 29.8044213,180.344214 30.3908841,184.916809 C32.7397248,203.234856 38.7150687,202.817063 51.7205452,218.892029 C56.8146739,225.188113 62.6878248,230.488647 66.8682211,237.481909 C71.1787123,244.692355 76.2569496,246.930952 84.5982844,247.433919 C87.2380489,247.5932 103.033629,247.5932 105.673892,247.433919 C114.015227,246.930952 119.092966,244.692355 123.403457,237.481909 C127.584378,230.488621 133.457004,225.188086 138.551133,218.892029 C151.556374,202.817063 157.531953,203.234882 159.881056,184.916809 C160.467755,180.344214 161.581757,171.427456 161.581757,171.427456 C161.581757,171.427456 166.871439,132.908692 174.031216,112.700458 Z"></path>
                        </g>
                        <g transform="translate(94.929145, 0.000000)"></g>
                    </g>
                    <g></g>
                </g>
                <use id="Rectangle" stroke="#FFFFFF" mask="url(#mask-2)" stroke-width="2" opacity="0.01" xlink:href="#path-1"></use>
            </g>
        </g>
    </g>
</svg>