<?xml version="1.0" encoding="UTF-8"?>
<svg width="359px" height="329px" viewBox="0 0 359 329" version="1.1" xmlns="http://www.w3.org/2000/svg" xmlns:xlink="http://www.w3.org/1999/xlink">
    <!-- Generator: Sketch 42 (36781) - http://www.bohemiancoding.com/sketch -->
    <title>Group 19</title>
    <desc>Created with Sketch.</desc>
    <defs>
        <rect id="path-1" x="0" y="0" width="359" height="329"></rect>
        <mask id="mask-2" maskContentUnits="userSpaceOnUse" maskUnits="objectBoundingBox" x="0" y="0" width="359" height="329" fill="white">
            <use xlink:href="#path-1"></use>
        </mask>
    </defs>
    <g id="variations-SVG" stroke="none" stroke-width="1" fill="none" fill-rule="evenodd">
        <g id="faceforms/beards" transform="translate(-3.000000, -1147.000000)">
            <g id="3" transform="translate(3.000000, 1147.000000)">
                <g id="Group-19">
                    <path d="M124.83867,247.43876 C126.276244,260.653054 132.347513,289.056012 116.204838,310.26848 L116.204838,328.494807 L239.78318,328.494807 L239.78318,310.26848 C223.639719,289.056012 229.711775,260.653054 231.148824,247.43876 L124.83867,247.43876 Z" id="body_color_path" fill="#D8A783"></path>
                    <use id="Rectangle" stroke="#FFFFFF" mask="url(#mask-2)" stroke-width="2" opacity="0.01" xlink:href="#path-1"></use>
                    <path   style="opacity: 0.3" class="color-burn-path" id="body_color_path"  d="M178.076404,320.813902 C200.611324,320.813902 220.036135,299.032907 228.932727,274.814437 C228.749162,263.819701 230.534459,253.844799 231.231218,247.438655 L124.921065,247.438655 C125.617824,253.844799 127.403646,263.819964 127.220081,274.814962 C136.117197,299.03317 155.541483,320.813902 178.076404,320.813902" fill="#CC976F"></path>
                    <path d="M257.206376,165.648778 C257.208212,165.647205 257.96948,136.008595 257.563803,119.879032 C257.126394,102.471334 251.87461,86.6480617 238.819754,74.8469528 C229.237942,66.1853239 216.817958,60.1022538 203.832333,56.0585869 C201.073094,55.1997665 188.946289,53.1333531 177.139673,53.162199 C166.112945,53.1899959 155.366022,55.2561471 152.790085,56.0585869 C139.803936,60.1022538 127.384214,66.1853239 117.802139,74.8469528 C104.747284,86.6480617 99.4952373,102.471334 99.0578289,119.879032 C98.6524133,136.008595 99.4134199,165.647205 99.4155178,165.648778 C84.3765908,152.798729 83.242948,167.29378 83.2424235,183.081388 C83.2424235,194.643601 93.2225711,207.225384 96.6856492,214.385978 C98.9935813,219.158921 100.765242,226.034466 107.614564,226.302995 C110.197318,226.40448 111.865659,224.375829 111.865659,224.375829 C111.865659,224.375829 112.979634,233.292612 113.565992,237.865208 C115.914833,256.183124 121.890124,255.765383 134.895679,271.840401 C139.98986,278.136406 145.86288,283.436967 150.043434,290.430255 C154.353794,297.640675 159.431979,299.879376 167.773418,300.382344 C170.413078,300.54152 186.208816,300.54152 188.849,300.382344 C197.19044,299.879376 202.2681,297.640675 206.578722,290.430255 C210.759538,283.436967 216.632033,278.136406 221.726215,271.840401 C234.731508,255.765383 240.707061,256.183124 243.056164,237.865208 C243.642784,233.292612 244.75676,224.375829 244.75676,224.375829 C244.75676,224.375829 246.424575,226.40448 249.00733,226.302995 C255.856914,226.034466 257.628312,219.158921 259.936245,214.385978 C263.399585,207.225384 273.379995,194.643601 273.379208,183.081388 C273.378946,167.29378 272.24609,152.798729 257.206376,165.648778" id="body_color_path" fill="#E8B490"></path>
                </g>
            </g>
        </g>
    </g>
</svg>