<?xml version="1.0" encoding="UTF-8"?>
<svg width="359px" height="329px" viewBox="0 0 359 329" version="1.1" xmlns="http://www.w3.org/2000/svg" xmlns:xlink="http://www.w3.org/1999/xlink">
    <!-- Generator: Sketch 42 (36781) - http://www.bohemiancoding.com/sketch -->
    <title>4</title>
    <desc>Created with Sketch.</desc>
    <defs>
        <rect id="path-1" x="0" y="0" width="359" height="329"></rect>
        <mask id="mask-2" maskContentUnits="userSpaceOnUse" maskUnits="objectBoundingBox" x="0" y="0" width="359" height="329" fill="white">
            <use xlink:href="#path-1"></use>
        </mask>
    </defs>
    <g id="variations-SVG" stroke="none" stroke-width="1" fill="none" fill-rule="evenodd">
        <g id="faceforms/beards" transform="translate(-3.000000, -1785.000000)">
            <g id="4" transform="translate(3.000000, 1785.000000)">
                <g>
                    <path d="M240.599387,247.696665 L118.555017,247.696665 C119.992433,260.910724 126.064069,289.313839 109.920975,310.526202 L109.920975,327.752503 L249.233429,327.752503 L249.233429,310.526202 C233.090361,289.313839 239.162234,260.91075 240.599387,247.696665 Z" id="body_color_path" fill="#D8A076" fill-rule="nonzero"></path>
                    <path  style="opacity: 0.3" class="color-burn-path" id="body_color_path"  d="M178.086264,321.071703 C200.621341,321.071703 229.486279,291.161391 238.383211,266.94292 C238.199463,255.948001 239.98518,254.102364 240.68186,247.696665 L118.63749,247.696665 C119.334301,254.102337 120.099372,256.750572 120.674034,267.730124 C129.571072,291.94849 155.551317,321.071703 178.086264,321.071703 Z" fill="#CC8F61" fill-rule="nonzero"></path>
                    <path d="M249.447413,166.834236 C249.449196,166.832584 246.233806,128.630369 245.858626,114.473234 C245.453761,99.1943093 215.745836,75.9356722 203.729353,72.3865547 C201.176651,71.6326285 189.955082,69.8183542 179.029812,69.8443679 C168.82645,69.86831 157.570581,71.6821909 155.186889,72.3865547 C143.170433,75.9356985 111.200272,99.1943356 110.795381,114.473234 C110.420201,128.630343 109.204811,166.832558 109.206594,166.834236 C116.006772,193 116.006772,218.379818 116.006772,218.379818 C116.006772,218.379818 112.055071,256.724794 112.597715,260.738619 C114.771408,276.816653 148.22124,303.478605 155.939766,303.920366 C158.382356,304.06019 198.698187,304.06019 201.140777,303.920366 C208.859303,303.478605 244.931487,276.816679 247.105181,260.738619 C247.647824,256.724794 243.171653,218.379818 243.171653,218.379818 C243.171653,218.379818 243.171653,195 249.447413,166.834236 Z" id="body_color_path" fill="#E8AC83" fill-rule="nonzero"></path>
                    <g id="Group" transform="translate(111.712199, 218.151936)" fill-rule="nonzero" fill="#7F5035">
                        <path d="M106.440639,34.0260291 L87.8302285,58.3364511 L67.0583416,53.1496222 L67.0583416,85.8731934 C77.5601799,85.8743472 88.1906708,85.8395224 89.4286308,85.7684566 C97.147157,85.3266952 133.219341,58.6647695 135.393034,42.5867093 C135.887033,38.9323306 132.84993,6.82464507 131.644408,1.10283017 L110.986746,28.0875369 C101.442629,18.0542256 81.5822231,14.1092704 67.0582105,17.586542 C52.8351823,14.1813307 33.4946438,17.8939088 23.7361574,27.4716251 L4.29457356,0.227908619 C3.08905208,5.94982841 -0.197095982,38.9323306 0.296902703,42.5867093 C2.47059657,58.6647695 36.969369,85.3266952 44.6878952,85.7684566 C45.9258551,85.8395224 56.556346,85.8743472 67.0581843,85.8731934 L67.0581843,53.1496222 L45.761827,58.3364511 L28.1831278,33.7032163 C30.2541402,32.3708926 32.6685979,30.6672689 37.6306213,28.1142367 C43.8913557,24.8926247 57.2269339,24.0279565 59.6492792,24.02578 C61.6221795,24.0237346 65.2151166,24.9823878 67.0581843,25.4752327 C68.901252,24.9823878 72.494189,24.0237083 74.4670894,24.02578 C76.8894347,24.0279565 90.2250129,24.8926509 96.4857473,28.1142367 C101.857625,30.8781449 104.243708,32.6465302 106.440639,34.0260291 Z" id="haircut_color_path"></path>
                    </g>
                    <use id="Rectangle" stroke="#FFFFFF" mask="url(#mask-2)" stroke-width="2" opacity="0.01" xlink:href="#path-1"></use>
                </g>
            </g>
        </g>
    </g>
</svg>