<?xml version="1.0" encoding="UTF-8"?>
<svg width="359px" height="329px" viewBox="0 0 359 329" version="1.1" xmlns="http://www.w3.org/2000/svg" xmlns:xlink="http://www.w3.org/1999/xlink">
    <!-- Generator: Sketch 42 (36781) - http://www.bohemiancoding.com/sketch -->
    <title>5</title>
    <desc>Created with Sketch.</desc>
    <defs>
        <rect id="path-1" x="0.857560263" y="0" width="359" height="329"></rect>
        <mask id="mask-2" maskContentUnits="userSpaceOnUse" maskUnits="objectBoundingBox" x="0" y="0" width="359" height="329" fill="white">
            <use xlink:href="#path-1"></use>
        </mask>
    </defs>
    <g id="variations-SVG" stroke="none" stroke-width="1" fill="none" fill-rule="evenodd">
        <g id="faceforms/beards" transform="translate(-4.000000, -2316.000000)">
            <g id="5" transform="translate(3.000000, 2316.000000)">
                <g transform="translate(0.142440, 0.000000)">
                    <path d="M235.739196,247.696665 L122.729029,247.696665 C124.060042,260.910724 129.682232,289.313839 114.734112,310.526202 L114.734112,327.752503 L243.734112,327.752503 L243.734112,310.526202 C228.786017,289.313839 234.408426,260.91075 235.739196,247.696665 Z" id="body_color_path" fill="#D8A076" fill-rule="nonzero"></path>
                    <path  style="opacity: 0.3" class="color-burn-path" id="body_color_path"  d="M177.439427,321.071703 C197.750552,321.071703 223.766853,291.161391 231.785761,266.94292 C231.620147,255.948001 233.229634,254.102364 233.85756,247.696665 L123.85756,247.696665 C124.485604,254.102337 125.175172,256.750572 125.693122,267.730124 C133.712124,291.94849 157.128419,321.071703 177.439427,321.071703 Z" fill="#CC8F61" fill-rule="nonzero"></path>
                    <g id="Group" transform="translate(108.000000, 69.726808)" fill-rule="nonzero" fill="#E8AC83">
                        <path d="M141.304973,97.1074283 C141.306757,97.1057763 142.091366,58.9035609 141.716186,44.7464261 C141.311321,29.4675015 107.603396,11.2088644 95.5869134,7.65974682 C93.034211,6.9058206 81.812642,6.09154631 70.8873725,6.11756004 C60.6840104,6.14150212 49.428141,6.95538305 47.0444492,7.65974682 C35.0279928,11.2088906 1.05783236,29.4675277 0.652941198,44.7464261 C0.277761286,58.9035347 1.06237078,97.10575 1.06415398,97.1074283 C7.86433251,126.273192 7.86433251,148.65301 7.86433251,148.65301 C7.86433251,148.65301 17.9126315,186.997986 18.4552748,191.011811 C20.6289687,207.089845 48.0788002,225.751797 55.7973264,226.193558 C58.2399163,226.333382 90.5557474,227.333382 92.9983373,227.193558 C100.716863,226.751797 120.789047,210.089871 122.962741,194.011811 C123.505384,189.997986 135.029213,148.65301 135.029213,148.65301 C135.029213,148.65301 137.85756,125.273192 141.304973,97.1074283 Z" id="body_color_path"></path>
                    </g>
                    <g id="Group" transform="translate(115.569759, 216.151936)">
                        <g id="haircut_color_path" fill-rule="nonzero" fill="#7F5035">
                            <path d="M24.1831278,35.7032163 L41.761827,60.3364511 L63.2878013,54.8480643 L86.5083662,60.3364511 L103.23948,36.5135597 C100.780322,35.0622628 98.5114677,33.2145563 92.4857473,30.1142367 C86.2250129,26.8926509 72.8894347,26.0279565 70.4670894,26.02578 C68.494189,26.0237083 64.901252,26.9823878 63.0581843,27.4752327 C61.2151166,26.9823878 57.6221795,26.0237346 55.6492792,26.02578 C53.2269339,26.0279565 39.8913557,26.8926247 33.6306213,30.1142367 C28.6685979,32.6672689 26.2541402,34.3708926 24.1831278,35.7032163 Z M19.7361574,29.4716251 C29.4946438,19.8939088 48.8351823,16.1813307 63.0582105,19.586542 C77.8069791,16.0554604 98.0585778,20.1780978 107.422357,30.5576961 L128.287801,0.84806428 C129.493323,6.56998408 116.815886,55.0978239 114.982392,57.8480643 C102.982392,75.8480643 79.982392,87.8480643 72.982392,87.8731934 C66.0787409,87.8979765 72.5311434,87.8749979 62.6359412,87.8732538 C52.8210664,87.8749979 62.1914524,87.8979765 55.2878013,87.8731934 C48.2878013,87.8480643 25.2878013,75.8480643 13.2878013,57.8480643 C11.4543078,55.0978239 -0.910947918,7.94982841 0.294573557,2.22790862 L19.7361574,29.4716251 Z"></path>
                        </g>
                        <g transform="translate(62.831994, 18.258583)"></g>
                    </g>
                    <use id="Rectangle" stroke="#FFFFFF" mask="url(#mask-2)" stroke-width="2" opacity="0.01" xlink:href="#path-1"></use>
                </g>
            </g>
        </g>
    </g>
</svg>