<?xml version="1.0" encoding="UTF-8"?>
<svg width="359px" height="329px" viewBox="0 0 359 329" version="1.1" xmlns="http://www.w3.org/2000/svg" xmlns:xlink="http://www.w3.org/1999/xlink">
    <!-- Generator: Sketch 42 (36781) - http://www.bohemiancoding.com/sketch -->
    <title>8</title>
    <desc>Created with Sketch.</desc>
    <defs>
        <rect id="path-1" x="0" y="0" width="359" height="329"></rect>
        <mask id="mask-2" maskContentUnits="userSpaceOnUse" maskUnits="objectBoundingBox" x="0" y="0" width="359" height="329" fill="white">
            <use xlink:href="#path-1"></use>
        </mask>
    </defs>
    <g id="variations-SVG" stroke="none" stroke-width="1" fill="none" fill-rule="evenodd">
        <g id="faceforms/beards" transform="translate(-3.000000, -3969.000000)">
            <g id="8" transform="translate(3.000000, 3969.000000)">
                <g id="Group-11" transform="translate(64.000000, 42.000000)">
                    <path d="M60.8386705,205.43876 C62.2762439,218.653054 68.3475134,247.056012 52.2048385,268.26848 L52.2048385,285.494807 L175.78318,285.494807 L175.78318,268.26848 C159.639719,247.056012 165.711775,218.653054 167.148824,205.43876 L60.8386705,205.43876 Z" id="body_color_path" fill="#D8A783"></path>
                    <g id="Group-2">
                        <path d="M114.076404,278.813902 C136.611324,278.813902 156.036135,257.032907 164.932727,232.814437 C164.749162,221.819701 166.534459,211.844799 167.231218,205.438655 L60.9210648,205.438655 C61.6178237,211.844799 63.4036455,221.819964 63.2200809,232.814962 C72.117197,257.03317 91.5414833,278.813902 114.076404,278.813902"  style="opacity: 0.3" class="color-burn-path" id="body_color_path"  fill="#CC976F"></path>
                        <path d="M193.563803,77.8790317 C193.126394,60.4713341 187.87461,44.6480617 174.819754,32.8469528 C165.237942,24.1853239 152.817958,18.1022538 139.832333,14.0585869 C137.073094,13.1997665 124.946289,11.1333531 113.139673,11.162199 C102.112945,11.1899959 91.3660218,13.2561471 88.7900853,14.0585869 C75.8039356,18.1022538 63.3842139,24.1853239 53.8021394,32.8469528 C40.747284,44.6480617 35.4952373,60.4713341 35.0578289,77.8790317 C34.6524133,94.0085949 35.4134199,123.647205 35.4155178,123.648778 C42,150 47.8656587,182.375829 47.8656587,182.375829 C47.8656587,182.375829 47.640283,191.964554 49.5659918,195.865208 C60,217 60.890124,210.765383 73.8956792,226.840401 C78.9898603,233.136406 86.8628801,241.436967 91.0434337,248.430255 C95.3537939,255.640675 99.4319787,257.879376 107.773418,258.382344 C110.413078,258.54152 118.208816,258.54152 120.849,258.382344 C129.19044,257.879376 133.2681,255.640675 137.578722,248.430255 C141.759538,241.436967 149.632033,233.136406 154.726215,226.840401 C167.731508,210.765383 168,215 178.056164,195.865208 C180.067408,192.038228 180.75676,182.375829 180.75676,182.375829 C180.75676,182.375829 187,153 193.206376,123.648778 C193.208212,123.647205 193.96948,94.0085949 193.563803,77.8790317 Z" id="body_color_path" fill="#E8B490"></path>
                    </g>
                </g>
                <use id="Rectangle" stroke="#FFFFFF" mask="url(#mask-2)" stroke-width="2" opacity="0.01" xlink:href="#path-1"></use>
            </g>
        </g>
    </g>
</svg>