<?xml version="1.0" encoding="UTF-8"?>
<svg width="359px" height="329px" viewBox="0 0 359 329" version="1.1" xmlns="http://www.w3.org/2000/svg" xmlns:xlink="http://www.w3.org/1999/xlink">
    <!-- Generator: Sketch 42 (36781) - http://www.bohemiancoding.com/sketch -->
    <title>1</title>
    <desc>Created with Sketch.</desc>
    <defs>
        <rect id="path-1" x="0" y="0" width="359" height="329"></rect>
        <mask id="mask-2" maskContentUnits="userSpaceOnUse" maskUnits="objectBoundingBox" x="0" y="0" width="359" height="329" fill="white">
            <use xlink:href="#path-1"></use>
        </mask>
    </defs>
    <g id="variations-SVG" stroke="none" stroke-width="1" fill="none" fill-rule="evenodd">
        <g id="haircuts" transform="translate(-58.000000, -81.000000)">
            <g id="1" transform="translate(58.000000, 81.000000)">
                <g>
                    <path d="M289.633109,197.089702 C297.995798,176.081749 283.440906,141.719864 274.996827,121.882921 C266.755655,102.522027 253.715178,76.2024413 236.845872,62.8071681 C221.9341,50.96744 209.084428,42.0227131 190.860031,46.3188913 C186.168876,47.4247257 181.016858,52.0298773 175.709338,52.088197 C169.580464,52.15527 163.514419,48.3477703 157.405371,47.7679474 C139.770315,46.0959211 126.979595,53.9923424 114.88278,63.2586453 C99.8790998,74.7534906 91.0573137,93.2581757 84.4037201,111.273892 C75.4686693,135.467153 55.5835566,170.818497 66.0534031,197.089702 C68.4602532,203.129224 71.7234704,208.67672 76.7364385,213.080283 C78.1597359,214.330572 79.5961895,215.569261 81.0321157,216.808213 C77.2395387,226.522381 69.3449365,229.337838 69.3449365,229.337838 C78.0807194,228.902708 82.4796427,225.728078 84.5970823,222.022031 C81.8858991,234.079984 72.9791644,235.907512 72.9791644,235.907512 C72.9791644,235.907512 94.817198,239.578545 95.8640798,237.67788 C96.1534903,237.467012 96.4441663,237.251239 96.7363978,237.020544 C96.8973308,237.369408 84.5716135,245.795189 84.777051,245.959734 C90.6121378,250.667367 97.7389862,252.919717 104.144378,252.51807 C104.904433,255.122158 104.930693,257.79034 104.490157,260.544525 C104.128401,262.812852 102.952541,264.957079 102.179856,267.169802 C102.067594,267.494225 102.164406,267.890204 102.164406,268.839007 C106.006418,266.402022 109.483826,264.19473 112.863683,262.053324 C115.546022,267.294957 130.245396,272.026003 130.245396,272.026003 C130.245396,272.026003 126.973953,267.995269 125.591838,266.083293 C122.775616,262.187233 120.550026,256.481124 118.736366,251.269363 C115.45385,241.836617 115.715709,232.109293 115.234228,222.303215 C114.756887,212.608874 110.848962,205.038669 108.904003,195.72512 C106.541447,184.415121 110.548742,173.053894 112.496521,161.980522 C115.096233,147.216158 111.034863,135.585875 119.986655,122.086328 C128.07694,109.888323 144.524298,112.240466 155.523504,117.336985 C175.275236,126.491025 186.766759,121.94509 203.554966,115.657234 C238.919308,102.413877 244.993078,138.690717 243.188462,161.980496 C242.098077,176.050322 248.235704,185.819593 244.13157,199.730569 C239.603405,215.075415 238.032056,229.905823 233,245.484185 C231.67196,249.596282 232.000097,254.23903 228,262.053324 C227.980938,262.090657 221.99151,271.984794 222,272.026003 C226.92185,273.228914 242.737591,263.355579 242.823067,262.053298 C246.201631,264.194703 251.242678,267.513762 255.084427,269.949456 C254.463659,268.796507 253.647736,267.483389 253.5051,267.169776 C252.537525,265.033775 251.558612,262.812826 251.195564,260.544498 C250.981347,259.205121 250.877574,257.884042 250.914406,256.581998 C257.311044,257.881458 264.107801,256.514028 271.252657,250.610708 C271.581958,250.338567 265.644389,247.923201 261.206076,245.484185 C258.416114,243.950418 258.05615,238.999223 258.361275,238.314863 C267.706225,247.047798 281.370027,239.851979 281.370027,239.851979 C281.370027,239.851979 275.207432,237.860696 271.957609,227.163213 C274.519987,228.582397 278.054554,229.535551 282.904296,229.666349 C282.904296,229.666349 276.54963,229.335228 273.324774,217.959343 C275.199681,216.333403 277.084896,214.717244 278.948755,213.080231 C283.962277,208.67672 287.226259,203.129224 289.633109,197.089702 Z" id="haircut_color_path" fill="#7F5035"></path>
                    <use id="Rectangle" stroke="#FFFFFF" mask="url(#mask-2)" stroke-width="2" opacity="0.01" xlink:href="#path-1"></use>
                </g>
            </g>
        </g>
    </g>
</svg>