<?xml version="1.0" encoding="UTF-8"?>
<svg width="359px" height="329px" viewBox="0 0 359 329" version="1.1" xmlns="http://www.w3.org/2000/svg" xmlns:xlink="http://www.w3.org/1999/xlink">
    <!-- Generator: Sketch 42 (36781) - http://www.bohemiancoding.com/sketch -->
    <title>10</title>
    <desc>Created with Sketch.</desc>
    <defs>
        <rect id="path-1" x="0" y="0" width="359" height="329"></rect>
        <mask id="mask-2" maskContentUnits="userSpaceOnUse" maskUnits="objectBoundingBox" x="0" y="0" width="359" height="329" fill="white">
            <use xlink:href="#path-1"></use>
        </mask>
    </defs>
    <g id="variations-SVG" stroke="none" stroke-width="1" fill="none" fill-rule="evenodd">
        <g id="haircuts" transform="translate(-35.000000, -5037.000000)">
            <g id="10" transform="translate(35.000000, 5037.000000)">
                <g>
                    <use id="Rectangle" stroke="#FFFFFF" mask="url(#mask-2)" stroke-width="2" opacity="0.01" xlink:href="#path-1"></use>
                    <g id="Layer_1" transform="translate(68.000000, 32.000000)" fill-rule="nonzero" fill="#513A2A">
                        <path d="M202.990727,53.3175868 C196.066756,33.5615196 179.069673,18.6603913 179.069673,18.6603913 L162.413529,15.0955315 L150.963214,3.17844113 C150.963214,3.17844113 110.229228,-4.02980381 79.4993119,4.02028694 C48.7693956,12.0703777 24.1115986,36.4088284 24.1115986,36.4088284 L66.8817585,20.6110128 L23.6544529,42.252988 L10.6318778,65.5851482 L2.09475642,143.161694 L19.0787775,130.404817 L8.38814903,157.100921 L19.5366878,150.86001 L11.4774352,173.966589 L20.9086522,165.062186 L25.4995139,209.040945 L30.4931827,191.234906 L44.3146752,219.438314 C44.3146752,219.438314 37.5317762,134.073746 43.4661913,120.415809 C49.4006064,106.757872 66,120.54584 83,129.334373 C100,138.122906 128.048075,143.209575 145,143.161694 C147.647197,143.154216 160.333972,140.022392 165.681655,138.122906 C166.149521,137.956721 183.14006,128.979358 183.14006,128.979358 L178.780025,219.600367 L195.551253,191.272667 L200.83304,209.040945 L203.712618,168.652277 L215.901869,173.966589 L202.572509,150.463683 L215.589284,154.025128 L203.712618,126.819129 L221.438555,139.550916 C221.438555,139.550916 209.914698,73.073654 202.990727,53.3175868 Z" id="haircut_color_path"></path>
                    </g>
                </g>
            </g>
        </g>
    </g>
</svg>