<?xml version="1.0" encoding="UTF-8"?>
<svg width="359px" height="329px" viewBox="0 0 359 329" version="1.1" xmlns="http://www.w3.org/2000/svg" xmlns:xlink="http://www.w3.org/1999/xlink">
    <!-- Generator: Sketch 42 (36781) - http://www.bohemiancoding.com/sketch -->
    <title>11</title>
    <desc>Created with Sketch.</desc>
    <defs>
        <rect id="path-1" x="0" y="0.161388599" width="359" height="329"></rect>
        <mask id="mask-2" maskContentUnits="userSpaceOnUse" maskUnits="objectBoundingBox" x="0" y="0" width="359" height="329" fill="white">
            <use xlink:href="#path-1"></use>
        </mask>
    </defs>
    <g id="variations-SVG" stroke="none" stroke-width="1" fill="none" fill-rule="evenodd">
        <g id="haircuts" transform="translate(-35.000000, -5567.000000)">
            <g id="11" transform="translate(35.000000, 5566.838611)">
                <g>
                    <g id="Group" transform="translate(86.000000, 32.000000)" fill-rule="nonzero" fill="#7F563F">
                        <path d="M187.353882,82.0875898 C187.329263,81.8661751 187.30168,81.6454986 187.27274,81.4264041 C187.461777,80.6838554 187.259225,79.5571662 186.594991,77.9845101 C184.639121,70.3190477 179.866826,57.3589053 173.945657,53.9437984 C156.116459,43.66241 175.440149,51.3291644 175.440149,51.3291644 C169.60904,19.4929571 133.870333,17.0317948 129.966458,15.9637945 C130.95169,13.2263515 143.35599,16.133718 143.35599,16.133718 C97.3205589,-16.0026831 62.6287579,8.71440077 55.1165558,16.7521658 C54.0123236,17.369849 33.2779979,7.226456 16.4381034,28.1041119 C13.0323558,32.3261512 9.62148483,40.107225 9.78889344,40.6553832 C10.0625906,41.5555165 13.1137754,34.379998 21.55873,32.9304409 C23.5281145,32.5921231 17.8368308,36.5672262 12.3508407,42.5143387 C-0.908891042,56.8915826 0.067977701,80.04479 0.067977701,80.04479 C0.44444631,83.237955 0.159671651,87.5511387 0.234832443,90.8805061 C0.256738186,91.8604467 0.299469616,92.8473478 0.35491247,93.8435031 C0.69704085,100.005333 4.20309516,106.403765 3.84609525,112.16909 C4.88541336,111.698946 5.38168506,109.757336 6.50269968,110.011733 C6.5035028,110.272564 6.49430848,110.539564 6.47727683,110.810914 C6.27580493,113.999465 5.00064698,119.589699 5.20699299,122.966708 C6.7774769,123.203072 8.39121843,124.963158 9.97685081,127.588338 C10.7119256,130.799009 11.5668034,133.953048 12.6018013,136.964715 C14.8735459,143.573778 26.2493561,153.628584 29.2569786,162.727916 C21.3861704,124.866608 38.621476,131.551102 43.1208768,103.836773 C44.8660805,93.0875609 32.5595017,95.6218282 51.4665364,110.810914 C70.3735711,126 91.3813874,131 105.036468,132 C118.691549,133 133.825827,129.714423 133.39702,129 C129.794007,122.997124 85.8797967,92.4064744 84.9795114,95.3808562 C78.7766976,115.873844 130.128489,116.938466 140.749756,128 C144.313164,122.963593 102.920426,91.206195 110.128883,99.838732 C116.917891,107.96867 137.918287,120.293121 148.102491,123.293188 C137.918287,112.80942 151.253664,121 158.132895,129.079868 C163.396097,135.26166 166.087006,150.754675 159.870511,161.900393 C161.514023,158.953373 174.549823,143.082516 177.203437,130.090972 C179.169581,126.480948 181.101662,123.871481 182.788155,123.293188 C183.599775,120.033583 181.428614,113.085965 181.826186,110.437082 C182.893087,110.986269 183.269832,112.194084 184.266142,112.80942 C183.869928,106.898376 186.857278,100.477006 187.326244,94.1576177 C187.63298,90.0311257 187.787677,85.9504565 187.353882,82.0875898 Z" id="haircut_color_path"></path>
                    </g>
                    <use id="Rectangle" stroke="#FFFFFF" mask="url(#mask-2)" stroke-width="2" opacity="0.01" xlink:href="#path-1"></use>
                </g>
            </g>
        </g>
    </g>
</svg>