<?xml version="1.0" encoding="UTF-8"?>
<svg width="359px" height="329px" viewBox="0 0 359 329" version="1.1" xmlns="http://www.w3.org/2000/svg" xmlns:xlink="http://www.w3.org/1999/xlink">
    <!-- Generator: Sketch 42 (36781) - http://www.bohemiancoding.com/sketch -->
    <title>Layer_1</title>
    <desc>Created with Sketch.</desc>
    <defs>
        <rect id="path-1" x="0" y="0" width="359" height="329"></rect>
        <mask id="mask-2" maskContentUnits="userSpaceOnUse" maskUnits="objectBoundingBox" x="0" y="0" width="359" height="329" fill="white">
            <use xlink:href="#path-1"></use>
        </mask>
    </defs>
    <g id="variations-SVG" stroke="none" stroke-width="1" fill="none" fill-rule="evenodd">
        <g id="haircuts" transform="translate(-18.000000, -8826.000000)">
            <g id="17" transform="translate(18.000000, 8826.000000)">
                <g id="Layer_1">
                    <use id="Rectangle" stroke="#FFFFFF" mask="url(#mask-2)" stroke-width="2" opacity="0.01" xlink:href="#path-1"></use>
                    <path d="M97.4704074,105.579875 C97.4704074,108.873165 97.5728888,107.841395 97.6509033,111.260239 C97.6738147,112.267403 97.7147598,113.282351 97.7675428,114.304492 C98.091439,120.634294 98.8589555,124.400367 98.5582343,130.324178 C98.9449586,130.120888 99.2464707,129.6536 99.5384386,129.197222 C99.5534771,132.016302 99.6036772,138.293443 99.6056435,138.61273 C99.6208298,141.084587 99.394573,152.85216 100.336653,160.062138 C100.825068,161.145046 100.546494,163.906256 100.90825,164.996918 C101.46619,166.678993 106.191531,171.953808 106.666579,173.719942 C107.324416,176.166737 108.782458,178.672854 109.355084,181.146744 C109.805401,183.094292 111.23307,185.454139 112.542312,186.910458 C113.415922,187.881918 114.499372,188.066486 115.670091,188.094996 C116.019746,188.104195 116.368109,188.111419 116.715417,188.122062 C116.694035,185.147214 116.775662,182.167736 116.932983,179.204976 C117.260992,173.038721 117.86014,166.879984 118.588267,160.754623 C119.105789,156.393096 119.987361,153.097494 120.803548,148.787239 C121.037064,147.550868 121.521129,146.345043 122.038651,145.210038 C123.418182,142.191995 123.054369,139.094465 122.682594,135.912876 C121.84658,128.769118 120.915811,126.573377 123.550799,121.190592 C126.287213,115.601363 130.888516,113.587006 135.311115,111.117597 C141.710337,107.544553 148.705096,105.714203 155.707053,104.501892 C161.294465,103.534324 167.038144,103.659571 172.7162,103.400557 C173.584405,103.361107 174.452083,103.345275 175.322845,103.340528 C179.337364,103.48205 183.415213,103.494433 187.435374,103.357658 C187.877966,103.367299 188.320558,103.379977 188.762386,103.400557 C194.440942,103.659542 200.184885,103.534295 205.772561,104.501892 C212.774017,105.714203 219.76954,107.544553 226.167708,111.117597 C230.591072,113.587006 235.191847,115.601334 237.928789,121.190592 C240.56375,126.573377 239.633244,128.769118 238.79673,135.912876 C238.424691,139.094465 238.061643,142.191995 239.440146,145.210038 C239.957931,146.345043 240.441706,147.550898 240.676013,148.787239 C241.491699,153.097494 242.373007,156.393125 242.891294,160.754623 C243.619421,166.879984 244.218306,173.03875 244.546077,179.204976 C244.710596,182.299617 244.794015,185.412685 244.76185,188.520004 C245.136473,188.423828 245.512387,188.331987 245.889066,188.241855 C246.850736,188.010938 247.888074,187.804198 248.757571,187.250229 C251.280797,185.641862 251.978023,181.582101 252.676305,178.632284 C253.159579,176.590006 253.588013,174.52299 254.176088,172.515856 C254.707241,170.703639 255.397797,168.963422 255.949304,167.158694 C256.170718,166.432539 256.383406,165.701785 256.593748,164.969881 C256.496671,164.235088 258.757036,149.56953 259.579392,142.09352 C259.954542,140.671726 259.994169,139.143703 259.880904,137.593213 C259.901232,134.682285 259.927755,131.771327 259.941676,128.8604 C260.316035,129.385564 260.647155,129.95799 261.164677,130.324207 C260.793139,124.252978 261.505052,120.439672 261.902586,113.945764 C262.162625,109.705031 262.287517,110.962689 261.89022,106.996067 C261.181129,99.9317672 260.57995,93.5763739 257.899404,87.7707636 C253.679183,78.6311045 251.040346,70.5622352 245.625441,63.7131665 C239.190705,55.5763372 223.589405,54.1390058 214.888134,47.9282891 C217.962603,47.5786122 220.828523,46.9979892 222.510358,45.0947855 C220.735085,44.9266398 219.309468,45.4089051 217.79115,45.2970438 C213.090478,44.9516715 209.705743,39.6728174 205.632536,39.0228192 C198.75468,37.9278233 191.648686,39.0733543 185.670199,39.8331793 C179.459962,40.6218099 173.646759,44.8252453 166.252673,42.463835 C168.027181,40.7329636 170.279531,39.5337427 171.3339,37 C167.334067,38.8268999 163.900926,39.9149672 160.263613,40.2376076 C157.732926,40.4633349 154.928015,39.8887856 151.915583,40.6433036 C148.365803,41.530115 142.825268,45.2258111 140.483302,47.5233302 C138.903712,49.0730831 138.646494,50.9885226 136.490429,52.5826485 C135.734487,52.3803902 135.117067,52.109022 134.507373,51.894351 C134.09104,51.7473747 133.677028,51.6267273 133.223863,51.5707082 C119.361821,49.8739495 117.265474,63.6735699 109.268891,68.9754508 C110.562419,69.4072104 111.927028,68.2132965 112.355224,68.9754508 C105.583831,78.7365973 97.4704074,81 97.4704074,105.579875 Z" id="haircut_color_path" fill="#4E3827" fill-rule="nonzero"></path>
                </g>
            </g>
        </g>
    </g>
</svg>