<?xml version="1.0" encoding="UTF-8"?>
<svg width="359px" height="329px" viewBox="0 0 359 329" version="1.1" xmlns="http://www.w3.org/2000/svg" xmlns:xlink="http://www.w3.org/1999/xlink">
    <!-- Generator: Sketch 42 (36781) - http://www.bohemiancoding.com/sketch -->
    <title>18</title>
    <desc>Created with Sketch.</desc>
    <defs>
        <rect id="path-1" x="0" y="0" width="359" height="329"></rect>
        <mask id="mask-2" maskContentUnits="userSpaceOnUse" maskUnits="objectBoundingBox" x="0" y="0" width="359" height="329" fill="white">
            <use xlink:href="#path-1"></use>
        </mask>
    </defs>
    <g id="variations-SVG" stroke="none" stroke-width="1" fill="none" fill-rule="evenodd">
        <g id="haircuts" transform="translate(-20.000000, -9380.000000)">
            <g id="18" transform="translate(20.000000, 9380.000000)">
                <g>
                    <path d="M257.086914,157.136618 C257.707682,155.680364 258.652873,153.721511 259.983998,152.495926 C259.892326,149.696419 260.487098,128.665819 261.347051,122.641747 C261.449532,121.919025 261.520059,121.333006 261.540413,120.924662 C261.917092,113.61244 265.878564,96.7441359 265.878564,96.7441359 C265.878564,96.7441359 262.571581,88.7500052 256.582258,85.4257791 C256.566808,85.4170258 256.552386,85.4085362 256.536936,85.4006794 C256.499867,85.3253805 256.463298,85.250187 256.424673,85.1752572 C252.239967,77.0339825 249.62354,67.1326218 244.254458,61.0312994 C237.874798,53.7834613 222.405878,52.5030367 213.777454,46.9702266 C216.825927,46.658933 219.667908,46.142202 221.335821,44.4464733 C219.574971,44.2970092 218.161692,44.7268669 216.656531,44.6267057 C211.995248,44.3191559 208.639884,39.6171914 204.600134,39.038265 C197.781494,38.0627009 190.735771,39.0829276 184.807721,39.7596951 C178.650531,40.4620897 172.885206,44.2062339 165.55445,42.1028206 C167.314536,40.5611963 169.547323,39.4932224 170.592676,37.2358101 L170.233239,37.2358101 C166.62709,38.8636748 163.222793,39.8325421 159.616117,40.1198961 C157.106785,40.3212469 154.326077,39.8091298 151.33864,40.4807562 C147.819496,41.2710786 142.325574,44.5636138 140.003409,46.6096301 C138.43745,47.9904532 138.18205,49.696728 136.04452,51.1160442 C135.295275,50.9363392 134.683524,50.6947024 134.07847,50.5038977 C133.665486,50.3724673 133.255085,50.2643174 132.805797,50.2151463 C119.061158,48.703262 116.982845,60.9961546 109.053203,65.7188422 C110.336449,66.1032464 111.68972,65.0398863 112.11325,65.7188422 C108.885837,69.8991718 105.41046,74.8107131 102.863294,80.4251499 C95.5914899,87.1673304 92.1012159,95.6816723 92.1012159,95.6816723 C92.1012159,95.6816723 99.4971208,122.32634 98.565323,138.062524 C98.565323,138.060731 98.7512238,138.087756 99.0766755,138.132049 C99.3333668,140.932584 99.5282845,143.700136 99.350636,146.302668 C100.282935,145.940147 100.721941,144.449909 101.728643,144.640951 C101.728643,144.840482 101.721682,145.045181 101.707524,145.253466 C101.536572,147.700233 100.409092,150.698744 100.605038,153.28841 C100.470127,153.228667 100.338302,153.186957 100.208532,153.156057 C100.779602,154.141666 101.302265,155.159705 101.820314,156.149954 C101.906818,156.005763 101.953168,155.828114 102.009563,155.658191 C102.010855,155.661012 102.012912,155.663859 102.014467,155.666417 C103.236941,157.835374 104.619583,159.949729 105.730058,162.167066 C105.997058,162.407543 106.30706,162.65266 106.400524,163.005136 C106.461296,163.233774 106.464645,163.491494 106.459477,163.74692 C106.570184,164.011099 106.678835,164.276543 106.77926,164.544572 C108.379204,168.817074 109.381265,173.31716 110.635166,177.72046 C112.132629,179.804943 114.077561,181.365761 116.545447,181.825596 C116.350028,177.897845 116.420318,173.939484 116.652806,170.015344 C116.978257,164.522425 117.571975,159.036202 118.294459,153.580615 C118.748652,150.141042 120.206699,119.363053 122.348104,109.015251 C131.864033,94.9854472 144.489179,110.156362 144.767253,109.845596 C147.151455,112.957398 156.72014,122.997281 186.962335,133.681345 C186.962335,133.681345 184.206094,130.966048 179.924074,128.15908 C170.308512,121.854351 161.28461,113.216936 156.902429,103.765761 C158.632116,107.496406 172.508079,116.648522 177.064059,118.314378 C188.058652,122.333775 197.911606,117.000233 206.129604,121.041776 C216.19833,125.991679 223.69437,140.138254 232.733695,146.289776 C232.664698,146.232089 232.593881,146.172872 232.522563,146.109543 C232.821755,146.321177 233.072013,146.497823 233.273865,146.641751 C230.080173,144.04515 221.08667,122.979775 207.385008,109.709024 C219.527909,120.718671 232.107496,128.611744 237.219887,138.368149 C238.446474,140.708823 239.85564,143.716113 241.039225,146.915975 C241.263751,150.29454 241.433675,152.744892 241.543881,153.580642 C242.265838,159.036228 242.860584,164.522451 243.184506,170.015371 C243.384038,173.382599 243.464636,176.77403 243.360863,180.150512 C245.251747,179.722605 247.021852,178.892497 248.334969,177.311115 C249.067736,176.429015 249.638305,175.426928 250.117703,174.370264 C251.000329,171.05814 251.86284,167.738554 253.058553,164.544598 C253.50038,163.366655 254.053179,162.22942 254.65797,161.113013 C255.563244,160.005122 256.355992,158.802976 256.995057,157.474936 C257.008108,157.366285 257.036952,157.252994 257.086914,157.136618 Z M102.602701,155.070907 C102.669378,155.062918 102.74096,155.058278 102.825935,155.064737 C102.848582,155.172623 102.873814,155.277662 102.899045,155.383492 C102.800202,155.278691 102.700542,155.174153 102.602701,155.070907 Z" id="haircut_color_path" fill="#4E3827" fill-rule="nonzero"></path>
                    <use id="Rectangle" stroke="#FFFFFF" mask="url(#mask-2)" stroke-width="2" opacity="0.01" xlink:href="#path-1"></use>
                </g>
            </g>
        </g>
    </g>
</svg>