<?xml version="1.0" encoding="UTF-8"?>
<svg width="359px" height="329px" viewBox="0 0 359 329" version="1.1" xmlns="http://www.w3.org/2000/svg" xmlns:xlink="http://www.w3.org/1999/xlink">
    <!-- Generator: Sketch 42 (36781) - http://www.bohemiancoding.com/sketch -->
    <title>19</title>
    <desc>Created with Sketch.</desc>
    <defs>
        <rect id="path-1" x="1.13686838e-13" y="0" width="359" height="329"></rect>
        <mask id="mask-2" maskContentUnits="userSpaceOnUse" maskUnits="objectBoundingBox" x="0" y="0" width="359" height="329" fill="white">
            <use xlink:href="#path-1"></use>
        </mask>
    </defs>
    <g id="variations-SVG" stroke="none" stroke-width="1" fill="none" fill-rule="evenodd">
        <g id="haircuts" transform="translate(-20.000000, -9870.000000)">
            <g id="19" transform="translate(20.000000, 9870.000000)">
                <g transform="translate(-0.000000, 0.000000)">
                    <g id="Group" transform="translate(90.000000, 24.000000)" fill="#7F5035">
                        <path d="M176.344367,82.6860746 C176.344367,82.6860746 168.01669,70.4542174 162.5562,62.4446367 C165.50554,66.6894555 166.898227,68.5417142 166.88689,68.5339892 C166.848793,68.4405247 174.616473,72.888619 174.577584,72.7954181 C170.341123,62.6385262 166.537763,50.1490548 154.450966,38.1302281 C146.843428,30.5656915 132.329191,27.4910907 123.593672,20.588109 C123.60783,20.5859207 123.621223,20.5842597 123.635118,20.5824405 C125.84937,20.3023106 139.451399,24.4602298 141.267353,26.0878309 C122.316095,9.10328248 114.078798,10.558139 97.6602834,9.93439176 C101.004837,9.5453473 105.541518,8.97298581 111.97781,7.68755191 C103.93696,1.31833307 97.584589,1.62472272 90.4062494,1.20839031 C55.6951048,-0.804775029 51.9712881,21.6173262 47.6542551,21.1336571 C28.7027331,19.0100217 18.9395258,24.6717049 9.75047289,51.5648381 C11.0494321,52.0441305 20.6618833,40.2419728 24.6828355,39.5336725 C13.1967434,47.3183582 4.28934962,62.9599176 1.70986041,69.9640625 C12.6220618,60.0572969 6.77189409,63.1548089 0.399959639,81.3605657 C-2.34454917,89.2007765 17.5828005,178.964902 22.7793493,181.193075 C22.7662194,178.046761 22.4977956,110.706161 22.58778,102.878737 C22.6578058,96.8410075 37.5204062,86.8607358 42.1196257,84.154061 C48.7734829,80.2394395 56.0481081,78.2347638 63.3291664,76.9064601 C69.139549,75.8458157 75.1121303,75.9831518 81.0175066,75.6989089 C83.6630406,75.571987 86.3162996,75.6570674 88.9989029,75.6722537 L88.9989029,75.6748375 C89.12042,75.6748375 89.2404079,75.6734138 89.361424,75.6734138 C89.480621,75.6734138 89.6008725,75.6748375 89.7208604,75.6748375 L89.7208604,75.6722537 C92.4057839,75.6570674 95.0582519,75.5719606 97.7040495,75.6989089 C103.608925,75.9831518 109.582271,75.8457893 115.392153,76.9064601 C122.672947,78.2347638 129.947836,80.2394395 136.60143,84.154061 C141.20144,86.8607358 155.563234,96.8410075 155.633523,102.878737 C155.724167,110.706161 156.018956,177.306269 155.860369,181.832905 C163.240561,174.81136 176.344367,82.6860746 176.344367,82.6860746 Z" id="haircut_color_path"></path>
                    </g>
                    <use id="Rectangle" stroke="#FFFFFF" mask="url(#mask-2)" stroke-width="2" opacity="0.01" xlink:href="#path-1"></use>
                </g>
            </g>
        </g>
    </g>
</svg>