<?xml version="1.0" encoding="UTF-8"?>
<svg width="359px" height="329px" viewBox="0 0 359 329" version="1.1" xmlns="http://www.w3.org/2000/svg" xmlns:xlink="http://www.w3.org/1999/xlink">
    <!-- Generator: Sketch 42 (36781) - http://www.bohemiancoding.com/sketch -->
    <title>2</title>
    <desc>Created with Sketch.</desc>
    <defs>
        <rect id="path-1" x="0" y="0" width="359" height="329"></rect>
        <mask id="mask-2" maskContentUnits="userSpaceOnUse" maskUnits="objectBoundingBox" x="0" y="0" width="359" height="329" fill="white">
            <use xlink:href="#path-1"></use>
        </mask>
    </defs>
    <g id="variations-SVG" stroke="none" stroke-width="1" fill="none" fill-rule="evenodd">
        <g id="haircuts" transform="translate(-58.000000, -616.000000)">
            <g id="2" transform="translate(58.000000, 616.000000)">
                <g>
                    <use id="Rectangle" stroke="#FFFFFF" mask="url(#mask-2)" stroke-width="2" opacity="0.01" xlink:href="#path-1"></use>
                    <g id="haircut_7" transform="translate(93.000000, 39.000000)" fill="#7F563F">
                        <g id="Layer_1">
                            <g id="Group">
                                <path d="M171.840405,72.6136349 C171.840405,72.6136349 163.73003,61.7364464 158.412202,54.614001 C161.284555,58.3882806 162.640938,60.0358665 162.629601,60.0289061 C162.593032,59.9457504 170.157569,63.9012906 170.119998,63.8183721 C165.993744,54.7862447 162.289754,43.6804174 150.519129,32.9927418 C143.110094,26.265774 128.975383,23.5316531 120.467474,17.3935249 C120.481632,17.3914685 120.494499,17.3899129 120.508156,17.3881201 C122.664748,17.1391538 135.911189,20.8364471 137.679501,22.2837104 C119.223355,7.18036968 111.20104,8.47442499 95.211249,7.91959634 C98.4692986,7.57408078 102.887284,7.06465295 109.155682,5.92188099 C101.324673,0.25800956 95.1378484,0.530414504 88.1469652,0.160432064 C54.3429143,-1.62976303 50.716016,18.3086337 46.5124059,17.8786441 C28.0553627,15.9903442 18.5470539,21.0249581 9.5980822,44.9392489 C10.8630567,45.3656264 20.2244851,34.870522 24.1401085,34.2406317 C12.9542102,41.1629128 4.27919903,55.0723331 1.7671783,61.3006038 C12.3943458,52.4909193 6.69712247,55.2453677 0.491789529,71.4347162 C-2.18116421,78.4068011 7.95695578,120.500958 10.1200862,132.359115 C10.1200862,132.359115 17.2256843,158.228384 22.2868215,160.209911 C22.2736917,157.412461 23.4478909,136.677968 24.1851666,130.710264 C24.7095171,126.459908 27.1556249,121.644916 27.6801072,120.539583 C29.0767758,117.598469 28.708718,114.580896 28.331907,111.480168 C27.4849522,104.520184 26.1471307,97.5303031 26.2349267,90.5695553 C26.3034235,85.2004728 36.6424724,76.32593 41.1217304,73.9188163 C47.6017884,70.4380601 54.6863998,68.6555636 61.7774442,67.4740348 C67.435779,66.5309263 73.2527266,66.6529443 79.0036295,66.400366 C81.5799021,66.2876022 84.1638998,66.3630329 86.7767145,66.3764264 L86.7767145,66.3790102 C86.8954105,66.3790102 87.0117864,66.3777183 87.1294542,66.3777183 C87.2455664,66.3777183 87.3624695,66.3790102 87.4798736,66.3790102 L87.4798736,66.3764264 C90.094244,66.3630329 92.6777143,66.2876022 95.2545143,66.400366 C101.005417,66.6529443 106.822233,66.5309 112.480436,67.4740348 C119.570979,68.6555636 126.656092,70.4380601 133.135649,73.9188163 C137.615144,76.32593 147.953692,85.2004728 148.022189,90.5695553 C148.110749,97.5303294 146.772427,104.520184 145.926369,111.480168 C145.548925,114.580896 145.180735,117.598495 146.577272,120.539583 C147.101992,121.644916 149.546966,126.459908 150.072213,130.710264 C150.80962,136.677968 152.045988,156.753859 151.891515,160.778924 C159.079109,154.53523 162.750669,144.044238 165.373292,132.765666 C172.455241,91.0638495 171.840405,72.6136349 171.840405,72.6136349 Z" id="haircut_color_path"></path>
                            </g>
                        </g>
                    </g>
                </g>
            </g>
        </g>
    </g>
</svg>