<?xml version="1.0" encoding="UTF-8"?>
<svg width="359px" height="329px" viewBox="0 0 359 329" version="1.1" xmlns="http://www.w3.org/2000/svg" xmlns:xlink="http://www.w3.org/1999/xlink">
    <!-- Generator: Sketch 42 (36781) - http://www.bohemiancoding.com/sketch -->
    <title>Layer_1</title>
    <desc>Created with Sketch.</desc>
    <defs>
        <rect id="path-1" x="0" y="0" width="359" height="329"></rect>
        <mask id="mask-2" maskContentUnits="userSpaceOnUse" maskUnits="objectBoundingBox" x="0" y="0" width="359" height="329" fill="white">
            <use xlink:href="#path-1"></use>
        </mask>
    </defs>
    <g id="variations-SVG" stroke="none" stroke-width="1" fill="none" fill-rule="evenodd">
        <g id="haircuts" transform="translate(-20.000000, -10456.000000)">
            <g id="20" transform="translate(20.000000, 10456.000000)">
                <g id="Layer_1">
                    <g id="Group" transform="translate(92.000000, 38.000000)" fill-rule="nonzero" fill="#7F563F">
                        <path d="M21.3905376,160.181542 C21.6868821,159.115862 22.0368006,141.971303 21.9958555,140.881683 C21.9614753,139.975908 21.7122454,139.116957 21.3886129,138.282499 C21.749473,133.183765 22.3090737,128.09302 22.9720787,123.025977 C23.5144366,118.876547 24.4369803,114.774232 25.2906054,110.673472 C25.5358542,109.496558 26.0417755,108.349014 26.5845289,107.26994 C28.0284438,104.397323 27.6474935,101.45054 27.2574208,98.4234496 C26.9767636,96.2436827 26.6447733,94.0598029 26.3244629,91.8764504 C26.5245218,91.3563447 26.6875113,90.8146459 26.7984823,90.2440772 C28.0437356,83.8265838 27.4753817,78.2139399 30.0637559,73.5663139 C32.4331411,69.3146665 43.1129599,62.07893 49.6585617,61.3652248 C56.0371929,60.6669696 62.1061916,67.4384946 68.1386481,68.0486901 C80.4202037,69.2917552 98.280814,69.4977463 110.693563,68.0486901 C117.173357,67.2937762 120.722636,60.631693 126.882648,61.3652248 C130.80626,61.8304646 133.976777,64.1099973 137.255444,66.0419579 C140.588687,68.0075077 144.630494,70.3641585 146.475529,73.7702485 C149.134193,78.6776768 148.115126,84.8389799 149.741831,90.6498899 C149.777371,90.7760473 149.815969,90.8983553 149.853065,91.0216916 C149.497241,93.4906053 149.113601,95.9589916 148.796402,98.4235023 C148.406593,101.450593 148.025537,104.397375 149.470454,107.269993 C150.011151,108.349066 150.517863,109.49661 150.762954,110.673525 C151.617238,114.774285 152.539518,118.8766 153.081744,123.02653 C154.082276,130.678362 153.04159,155.135143 154.523075,162.515571 C155.090533,162.582512 165.331767,125.091714 171.821106,122.628469 C172.574991,119.259712 170.505932,112.096295 170.872065,109.359643 C171.878265,109.923252 172.238203,111.1689 173.17849,111.800478 C172.785596,105.699419 173.539456,99.0604848 173.960165,92.5346042 C174.234626,88.2731753 174.36748,84.0601528 173.946771,80.0755055 C173.923095,79.8466031 173.895781,79.617727 173.866964,79.392173 C174.043584,78.6256847 173.848429,77.462928 173.218143,75.8413645 C173.216087,75.8377525 173.216087,75.8344041 173.21403,75.8313194 C172.339128,72.1244818 170.920972,68.6197861 169.387996,65.2894959 C168.839073,61.5912798 168.28137,58.5926371 168.024415,58.040234 C167.239129,56.3507012 166.465153,54.6511232 165.647938,52.9767766 C160.528349,32.3643016 167.839016,34.0677553 167.839016,34.0677553 C152.5189,25.2714643 141.137584,21.0069507 133.502494,18.3959287 C129.421034,15.4248377 125.376405,13.1115576 121.693771,12.0234933 C122.614232,9.19400959 134.310955,12.1496507 134.310955,12.1496507 C77.9551393,-13.0159575 53.5436805,7.41138131 46.4934493,15.736764 C45.4536597,16.3791514 44.4048269,17.0771693 43.3520392,17.8220381 C38.9263553,12.885529 35.4737835,16.5436964 23.5536943,16.077402 C10.8828306,15.579443 14.1679309,31.994741 5.11597682,40.2254727 C-3.93624089,48.4559672 2.01690919,78.6514171 2.01690919,78.6514171 C2.38201408,81.9460352 2.12698378,86.400299 2.20937494,89.8370517 C2.23410547,90.848156 2.2770807,91.8679872 2.33284303,92.8955697 C2.67566935,99.2551389 3.48811208,105.848224 3.17064906,111.800478 C4.14903418,111.311536 4.6097919,109.304804 5.66721981,109.563288 C5.66837987,109.832872 5.6602594,110.108098 5.64596948,110.388491 C5.46600082,113.680789 4.28381293,118.665468 4.48901306,122.151128 C14.0086852,124.047601 19.4705731,160.247982 21.3905376,160.181542 Z" id="haircut_color_path"></path>
                    </g>
                    <use id="Rectangle" stroke="#FFFFFF" mask="url(#mask-2)" stroke-width="2" opacity="0.01" xlink:href="#path-1"></use>
                </g>
            </g>
        </g>
    </g>
</svg>