<?xml version="1.0" encoding="UTF-8"?>
<svg width="359px" height="329px" viewBox="0 0 359 329" version="1.1" xmlns="http://www.w3.org/2000/svg" xmlns:xlink="http://www.w3.org/1999/xlink">
    <!-- Generator: Sketch 42 (36781) - http://www.bohemiancoding.com/sketch -->
    <title>Group 17</title>
    <desc>Created with Sketch.</desc>
    <defs>
        <rect id="path-1" x="0" y="0" width="359" height="329"></rect>
        <mask id="mask-2" maskContentUnits="userSpaceOnUse" maskUnits="objectBoundingBox" x="0" y="0" width="359" height="329" fill="white">
            <use xlink:href="#path-1"></use>
        </mask>
    </defs>
    <g id="variations-SVG" stroke="none" stroke-width="1" fill="none" fill-rule="evenodd">
        <g id="haircuts" transform="translate(-67.000000, -1730.000000)">
            <g id="4" transform="translate(67.000000, 1730.000000)">
                <g id="Group-17">
                    <path d="M113.471029,193.316506 C113.765781,192.256551 114.113767,175.204182 114.073121,174.120364 C114.03903,173.219324 113.790956,172.364961 113.469193,171.534987 C113.827931,166.463882 114.384656,161.400383 115.044178,156.360484 C115.583596,152.233427 116.501157,148.153047 117.350012,144.074503 C117.594153,142.903885 118.097382,141.762375 118.637062,140.689308 C120.073325,137.831993 119.694395,134.900991 119.306287,131.890006 C119.027268,129.722107 118.697114,127.550013 118.378498,125.378443 C118.577535,124.861316 118.739596,124.32216 118.849997,123.754945 C120.088534,117.371878 119.523155,111.789153 122.097518,107.166733 C124.454226,102.937928 135.07685,95.7408825 141.587101,95.0310117 C147.93162,94.3366129 153.968012,101.0716 159.967953,101.678674 C172.183656,102.915113 189.947994,103.119919 202.294289,101.678674 C208.739244,100.927895 212.269192,94.3014734 218.396318,95.0310117 C222.298902,95.4938569 225.452281,97.7611425 228.713438,99.6825399 C232.028615,101.637766 236.048943,103.981624 237.883803,107.369441 C240.528445,112.250424 239.514644,118.378599 241.132635,124.158263 C241.168037,124.283874 241.206585,124.405551 241.24356,124.528277 C240.889543,126.983847 240.507728,129.438893 240.19226,131.890006 C239.804676,134.900991 239.425484,137.831993 240.862795,140.689308 C241.400639,141.762375 241.904393,142.903885 242.148272,144.074503 C242.997914,148.153047 243.915475,152.233427 244.454631,156.361009 C245.450075,163.971861 244.414509,188.297061 245.88827,195.638074 C246.452863,195.704419 256.639127,158.415097 263.09326,155.965034 C263.843253,152.614454 261.785231,145.489786 262.149476,142.767522 C263.150165,143.328181 263.508116,144.567243 264.443509,145.195296 C264.052779,139.126911 264.802509,132.523566 265.220775,126.032983 C265.493761,121.794475 265.62619,117.603956 265.207663,113.640796 C265.184062,113.413175 265.157051,113.185555 265.128468,112.961082 C265.303903,112.198764 265.109587,111.042307 264.483107,109.429298 C264.481009,109.425889 264.481009,109.42248 264.478911,109.419595 C263.608552,105.732568 262.197989,102.246676 260.673354,98.9341206 C260.127118,95.2560096 259.57249,92.2733463 259.317073,91.7239635 C258.536137,90.0435603 257.766214,88.3529299 256.953547,86.6877364 C251.861202,66.1859256 259.13246,67.8802272 259.13246,67.8802272 C243.895021,59.131274 232.574589,54.8896195 224.980782,52.2927042 C220.921119,49.3375757 216.898168,47.0367239 213.235267,45.9544792 C214.150992,43.140171 225.784533,46.0798277 225.784533,46.0798277 C169.731757,21.0494771 145.451399,41.3671987 138.438967,49.6477999 C137.404974,50.2866049 136.361802,50.9810037 135.314435,51.7218182 C130.912555,46.8117261 127.478585,50.4502397 115.622669,49.9866078 C103.019907,49.4912455 106.287095,65.8182718 97.2837738,74.0049928 C88.2801901,82.1911893 94.2014611,112.224463 94.2014611,112.224463 C94.5646569,115.501354 94.3110755,119.931556 94.3928928,123.349792 C94.417543,124.355464 94.4602873,125.370052 94.5156189,126.391983 C94.8567869,132.717358 95.6647336,139.275074 95.3490024,145.195296 C96.3221573,144.709112 96.7805444,142.712977 97.8321076,142.97023 C97.8334188,143.238235 97.8252895,143.512008 97.8111288,143.791026 C97.6320221,147.065295 96.4561595,152.023376 96.6604407,155.490388 C106.128705,157.376646 111.561432,193.382589 113.471029,193.316506" id="haircut_color_path" fill="#7F563F"></path>
                    <use id="Rectangle" stroke="#FFFFFF" mask="url(#mask-2)" stroke-width="2" opacity="0.01" xlink:href="#path-1"></use>
                </g>
            </g>
        </g>
    </g>
</svg>