<?xml version="1.0" encoding="UTF-8"?>
<svg width="359px" height="329px" viewBox="0 0 359 329" version="1.1" xmlns="http://www.w3.org/2000/svg" xmlns:xlink="http://www.w3.org/1999/xlink">
    <!-- Generator: Sketch 42 (36781) - http://www.bohemiancoding.com/sketch -->
    <title>5</title>
    <desc>Created with Sketch.</desc>
    <defs>
        <rect id="path-1" x="0" y="0" width="359" height="329"></rect>
        <mask id="mask-2" maskContentUnits="userSpaceOnUse" maskUnits="objectBoundingBox" x="0" y="0" width="359" height="329" fill="white">
            <use xlink:href="#path-1"></use>
        </mask>
    </defs>
    <g id="variations-SVG" stroke="none" stroke-width="1" fill="none" fill-rule="evenodd">
        <g id="haircuts" transform="translate(-66.000000, -2253.000000)">
            <g id="5" transform="translate(66.000000, 2253.000000)">
                <g>
                    <g id="Layer_1" transform="translate(91.000000, 33.000000)" fill-rule="nonzero" fill="#7F563F">
                        <g id="Group">
                            <path d="M178.368368,82.0875898 C178.34493,81.8661751 178.31867,81.6454986 178.291118,81.4264041 C178.471087,80.6838554 178.278252,79.5571662 177.645884,77.9845101 C177.644592,77.9806608 177.644592,77.9773125 177.642272,77.9713803 C175.783843,70.3190477 171.240492,57.3589053 165.603381,53.9437984 C148.62951,43.66241 167.026177,51.3291644 167.026177,51.3291644 C161.474806,19.4929571 127.450606,17.0317948 123.734013,15.9637945 C124.671981,13.2263515 136.481204,16.133718 136.481204,16.133718 C92.6542493,-16.0026831 59.6267318,8.71440077 52.4749156,16.7521658 C51.4236572,17.369849 31.6840275,7.226456 15.652,28.1041119 C12.4096376,32.3261512 9.16239775,40.107225 9.32177521,40.6553832 C9.58234219,41.5555165 12.4871512,34.379998 20.5269728,32.9304409 C22.4018791,32.5921231 16.9836256,36.5672262 11.7608172,42.5143387 C-0.862800211,56.8915826 0.0672048201,80.04479 0.0672048201,80.04479 C0.42561295,83.237955 0.1544999,87.5511387 0.226054973,90.8805061 C0.246909824,91.8604467 0.287591282,92.8473478 0.340374354,93.8435031 C0.666089672,100.005333 4.00394665,106.403765 3.66407323,112.16909 C4.65353172,111.698946 5.12599558,109.757336 6.19323133,110.011733 C6.19399592,110.272564 6.18524268,110.539564 6.1690281,110.810914 C5.97722148,113.999465 4.7632372,119.589699 4.95968408,122.966708 C6.45482655,123.203072 7.99115141,124.963158 9.50071562,127.588338 C10.2005263,130.799009 11.0143928,133.953048 11.9997383,136.964715 C14.1624996,143.573778 24.9925735,153.628584 27.8559102,162.727916 C20.3626914,124.866608 36.7711608,131.551102 41.0547101,103.836773 C42.7161904,93.0875609 44.0869684,85.5389752 53.6639057,100.01203 C63.635556,115.078275 78.7872769,121.617048 78.7872769,121.617048 C78.7872769,121.617048 76.5732617,116.737936 75.5588353,113.702593 C71.1238709,100.443549 79.895695,92.0648823 80.9052438,95.3808562 C84.3602675,106.721492 94.2546679,113.342129 104.366396,124.403662 C107.758856,119.367256 97.9854714,91.206195 104.848114,99.838732 C111.311431,107.96867 120.586118,112.873778 130.281751,115.873844 C127.7199,111.074302 125.159077,106.274233 122.597754,101.474454 C128.113057,111.809389 138.655777,112.248132 145.772317,120.526374 C147.657532,122.718506 149.30148,125.459535 150.549211,129.079868 C153.073729,136.411653 158.121736,150.754675 152.203468,161.900393 C153.768135,158.953373 166.178564,143.082516 168.704874,130.090972 C170.576696,126.480948 172.416088,123.871481 174.021675,123.293188 C174.794359,120.033583 172.727356,113.085965 173.105854,110.437082 C174.121572,110.986269 174.480244,112.194084 175.428757,112.80942 C175.051551,106.898376 177.895588,100.477006 178.342056,94.1576177 C178.634077,90.0311257 178.781352,85.9504565 178.368368,82.0875898 Z" id="haircut_color_path"></path>
                        </g>
                    </g>
                    <use id="Rectangle" stroke="#FFFFFF" mask="url(#mask-2)" stroke-width="2" opacity="0.01" xlink:href="#path-1"></use>
                </g>
            </g>
        </g>
    </g>
</svg>