<?xml version="1.0" encoding="UTF-8"?>
<svg width="359px" height="329px" viewBox="0 0 359 329" version="1.1" xmlns="http://www.w3.org/2000/svg" xmlns:xlink="http://www.w3.org/1999/xlink">
    <!-- Generator: Sketch 42 (36781) - http://www.bohemiancoding.com/sketch -->
    <title>Layer_1</title>
    <desc>Created with Sketch.</desc>
    <defs>
        <rect id="path-1" x="0" y="0" width="359" height="329"></rect>
        <mask id="mask-2" maskContentUnits="userSpaceOnUse" maskUnits="objectBoundingBox" x="0" y="0" width="359" height="329" fill="white">
            <use xlink:href="#path-1"></use>
        </mask>
    </defs>
    <g id="variations-SVG" stroke="none" stroke-width="1" fill="none" fill-rule="evenodd">
        <g id="haircuts" transform="translate(-46.000000, -2873.000000)">
            <g id="6" transform="translate(46.000000, 2876.000000)">
                <g id="Layer_1" transform="translate(0.000000, -3.000000)">
                    <path d="M263.767527,113.026315 C263.261843,108.666781 264.861022,105.447357 261.580299,94.0791698 C258.465386,83.2825797 246.87117,74.8727494 246.572479,75.344185 C247.006318,74.6598243 248.390753,75.7322012 249.702816,75.344185 C245.734146,70.4794946 239.464429,58.1872611 225.403092,59.7114843 C224.942994,59.7614463 224.524078,59.8700972 224.100548,60.002424 C223.482601,60.1950216 222.855927,60.4388467 222.08994,60.6203709 C221.076278,60.8603467 215.613995,48.0727116 199.467384,43.7116487 C199.465064,43.7110159 199.461979,43.7104886 199.459395,43.7100931 C185.129266,41.5818175 186.239477,45.1642905 174.489971,43.7100931 C168.433443,42.9604522 157.172905,42.9497743 143.646834,48.7999421 C125.652605,56.5821759 117.911685,63.3090119 111.385277,70.6175163 C105.892094,76.7698289 103.215686,84.0166388 98.9344308,92.2258829 C96.4142896,97.059146 95.7062529,102.316493 95.0437753,108.11103 C93.5226368,113.206284 92.8045286,118.42113 93.0965229,123.588334 C93.1186696,123.973767 93.1848462,124.526829 93.2973464,125.208105 C96.7091049,145.900387 91.697666,143.352194 93.4230028,147.52812 C94.3486048,147.08682 94.7041919,146.213975 95.6959705,145.819024 C96.2814619,148.920544 93.1910157,155.850155 95.6959705,159.21609 C96.3808586,159.064702 95.9879384,158.105089 96.8339968,158.076008 C100.230305,162.128625 101.70512,163.909302 103.171419,168.342711 C103.768248,170.145271 104.631021,172.534351 105.242008,174.333062 C110.794908,190.694918 110.024808,201.114565 112.584102,202.559245 C113.4657,203.056175 114.518488,203.242314 115.493287,203.449333 C115.875899,203.530432 116.257218,203.612823 116.636982,203.698826 C116.604289,200.908337 112.312988,177.129748 112.479564,174.350569 C112.811949,168.812854 113.419851,163.28131 114.15855,157.777844 C115.385928,148.636275 120.688043,139.487271 127.997444,132.961891 C135.952581,125.859246 142.242361,121.219872 149.239941,113.008044 C144.31759,118.784442 125.712638,145.398843 122.401806,147.848958 C122.611119,147.713784 122.870657,147.54618 123.180659,147.347413 C123.105993,147.40663 123.032619,147.462234 122.961037,147.517337 C132.331746,141.714178 145.736774,138.447349 156.174456,133.77784 C164.694466,129.965436 172.993589,125.832248 180.674238,121.125907 C184.874394,118.552719 199.783054,110.920977 201.57636,107.401596 C197.032481,116.317348 187.678251,124.465055 177.709448,130.412932 C173.270871,133.061024 170.413203,135.622875 170.413203,135.622875 C201.764581,125.543602 211.685004,116.072494 214.155948,113.136653 C214.529015,113.514756 209.606928,121.627451 210.092521,121.390587 C217.478118,117.785967 224.802441,104.686563 233.756818,122.547675 C234.61445,125.480273 236.738086,130.609643 236.096199,135.466081 C235.718492,138.323776 235.349538,141.105749 236.74966,143.816695 C237.27438,144.836025 237.765141,145.918948 238.002006,147.029687 C238.829767,150.901043 239.724231,153.861192 240.249215,157.778635 C240.987914,163.280308 241.595526,168.812353 241.928201,174.350595 C242.08808,177.011579 238.024653,200.669679 238.003561,203.341974 C238.355009,203.332192 238.70904,203.325759 239.063573,203.318298 C240.251034,203.292302 241.899622,203.446011 242.236911,202.252881 C243.798731,196.729853 243.725621,192.313423 244.340193,189.622066 C246.274315,181.141946 247.96514,173.121424 251.966793,165.283191 C252.521912,164.195891 254.633683,161.189629 256.529708,159.043873 C257.170038,158.319095 259.522576,157.332958 259.915734,157.70244 C261.327457,153.91039 259.048557,149.820704 258.79727,146.539479 C258.782348,146.343533 258.77486,146.14967 258.775124,145.961185 C259.818657,145.78069 260.273087,147.187008 261.240162,147.529201 C261.056317,145.073945 261.258433,142.463186 261.52364,139.821765 C261.861958,139.779528 262.055056,139.75406 262.055056,139.756116 C262.066631,139.585665 263.753342,132.230969 263.767501,131.973487 C264.125909,125.247495 264.563623,119.899267 263.767527,113.026315 Z" id="haircut_color_path" fill="#4E3827" fill-rule="nonzero"></path>
                    <use id="Rectangle" stroke="#FFFFFF" mask="url(#mask-2)" stroke-width="2" opacity="0.01" xlink:href="#path-1"></use>
                </g>
            </g>
        </g>
    </g>
</svg>