<?xml version="1.0" encoding="UTF-8"?>
<svg width="359px" height="329px" viewBox="0 0 359 329" version="1.1" xmlns="http://www.w3.org/2000/svg" xmlns:xlink="http://www.w3.org/1999/xlink">
    <!-- Generator: Sketch 42 (36781) - http://www.bohemiancoding.com/sketch -->
    <title>Group 18</title>
    <desc>Created with Sketch.</desc>
    <defs>
        <rect id="path-1" x="0" y="0" width="359" height="329"></rect>
        <mask id="mask-2" maskContentUnits="userSpaceOnUse" maskUnits="objectBoundingBox" x="0" y="0" width="359" height="329" fill="white">
            <use xlink:href="#path-1"></use>
        </mask>
    </defs>
    <g id="variations-SVG" stroke="none" stroke-width="1" fill="none" fill-rule="evenodd">
        <g id="haircuts" transform="translate(-46.000000, -3358.000000)">
            <g id="7" transform="translate(46.000000, 3358.000000)">
                <g id="PORT">
                    <g id="Group-18">
                        <path d="M112.471029,193.316506 C112.765781,192.256551 113.113767,175.204182 113.073121,174.120364 C113.03903,173.219324 112.790956,172.364961 112.469193,171.534987 C112.827931,166.463882 113.384656,161.400383 114.044178,156.360484 C114.583596,152.233427 115.501157,148.153047 116.350012,144.074503 C116.594153,142.903885 117.097382,141.762375 117.637062,140.689308 C119.073325,137.831993 118.694395,134.900991 118.306287,131.890006 C118.027268,129.722107 117.697114,127.550013 117.378498,125.378443 C117.577535,124.861316 117.739596,124.32216 117.849997,123.754945 C119.088534,117.371878 118.523155,111.789153 121.097518,107.166733 C123.454226,102.937928 134.07685,95.7408825 140.587101,95.0310117 C146.93162,94.3366129 152.968012,101.0716 158.967953,101.678674 C171.183656,102.915113 188.947994,103.119919 201.294289,101.678674 C207.739244,100.927895 211.269192,94.3014734 217.396318,95.0310117 C221.298902,95.4938569 224.452281,97.7611425 227.713438,99.6825399 C231.028615,101.637766 235.048943,103.981624 236.883803,107.369441 C239.528445,112.250424 238.514644,118.378599 240.132635,124.158263 C240.168037,124.283874 240.206585,124.405551 240.24356,124.528277 C239.889543,126.983847 239.507728,129.438893 239.19226,131.890006 C238.804676,134.900991 238.425484,137.831993 239.862795,140.689308 C240.400639,141.762375 240.904393,142.903885 241.148272,144.074503 C241.997914,148.153047 242.915475,152.233427 243.454631,156.361009 C244.450075,163.971861 243.414509,188.297061 244.88827,195.638074 C245.452863,195.704419 255.639127,158.415097 262.09326,155.965034 C262.843253,152.614454 260.785231,145.489786 261.149476,142.767522 C262.150165,143.328181 262.508116,144.567243 263.443509,145.195296 C263.052779,139.126911 263.802509,132.523566 264.220775,126.032983 C264.493761,121.794475 264.62619,117.603956 264.207663,113.640796 C264.184062,113.413175 264.157051,113.185555 264.128468,112.961082 C264.303903,112.198764 264.109587,111.042307 263.483107,109.429298 C263.481009,109.425889 263.481009,109.42248 263.478911,109.419595 C262.608552,105.732568 261.197989,102.246676 259.673354,98.9341206 C259.127118,95.2560096 258.57249,92.2733463 258.317073,91.7239635 C257.536137,90.0435603 256.766214,88.3529299 255.953547,86.6877364 C250.861202,66.1859256 258.13246,67.8802272 258.13246,67.8802272 C242.895021,59.131274 231.574589,54.8896195 223.980782,52.2927042 C219.921119,49.3375757 215.898168,47.0367239 212.235267,45.9544792 C213.150992,43.140171 224.784533,46.0798277 224.784533,46.0798277 C168.731757,21.0494771 144.451399,41.3671987 137.438967,49.6477999 C136.404974,50.2866049 135.361802,50.9810037 134.314435,51.7218182 C129.912555,46.8117261 126.478585,50.4502397 114.622669,49.9866078 C102.019907,49.4912455 105.287095,65.8182718 96.2837738,74.0049928 C87.2801901,82.1911893 93.2014611,112.224463 93.2014611,112.224463 C93.5646569,115.501354 93.3110755,119.931556 93.3928928,123.349792 C93.417543,124.355464 93.4602873,125.370052 93.5156189,126.391983 C93.8567869,132.717358 94.6647336,139.275074 94.3490024,145.195296 C95.3221573,144.709112 95.7805444,142.712977 96.8321076,142.97023 C96.8334188,143.238235 96.8252895,143.512008 96.8111288,143.791026 C96.6320221,147.065295 95.4561595,152.023376 95.6604407,155.490388 C105.128705,157.376646 110.561432,193.382589 112.471029,193.316506" id="haircut_color_path" fill="#7F563F"></path>
                        <use id="Rectangle" stroke="#FFFFFF" mask="url(#mask-2)" stroke-width="2" opacity="0.01" xlink:href="#path-1"></use>
                    </g>
                </g>
            </g>
        </g>
    </g>
</svg>