<?xml version="1.0" encoding="UTF-8"?>
<svg width="359px" height="329px" viewBox="0 0 359 329" version="1.1" xmlns="http://www.w3.org/2000/svg" xmlns:xlink="http://www.w3.org/1999/xlink">
    <!-- Generator: Sketch 42 (36781) - http://www.bohemiancoding.com/sketch -->
    <title>Group</title>
    <desc>Created with Sketch.</desc>
    <defs>
        <rect id="path-1" x="0" y="0" width="359" height="329"></rect>
        <mask id="mask-2" maskContentUnits="userSpaceOnUse" maskUnits="objectBoundingBox" x="0" y="0" width="359" height="329" fill="white">
            <use xlink:href="#path-1"></use>
        </mask>
    </defs>
    <g id="variations-SVG" stroke="none" stroke-width="1" fill="none" fill-rule="evenodd">
        <g id="haircuts" transform="translate(-35.000000, -3971.000000)">
            <g id="8" transform="translate(35.000000, 3971.000000)">
                <g id="haircut_2">
                    <g id="Layer_1">
                        <g id="Group">
                            <path d="M259.994395,121.644259 C259.312856,114.864508 259.663275,79.0803537 243.869668,73.4263692 C243.539839,72.9725719 243.206689,72.5319044 242.869637,72.1064497 C241.023811,69.7758213 241.216145,64.2339679 239.100762,61.2109901 C236.57366,57.5981444 233.024408,54.8124269 229.295186,52.4648984 C208.413654,39.3186179 187.653666,42.4280998 164.716231,38.1469761 C145.450463,34.5516369 143.220391,31.3231954 140.285051,17 C138.571447,17.9042463 120.396854,26.0729407 115.230942,40.7761637 C119.278153,23.8849479 128.621812,24.1734356 132.888013,20.5712678 C110.397678,28.2270806 102.61236,47.6959927 108.181211,58.4310465 C108.367376,58.7611385 108.563295,59.0932605 108.768627,59.430682 C108.557891,59.1163037 108.362604,58.781466 108.181211,58.4310465 C102.723568,48.8338871 104.939904,42.7369414 107.575893,37.2548578 C100.941335,46.9086496 99.1873134,64.2948714 106.389988,74.3016665 C103.660534,77.9977998 97.9999843,83.1175205 99.2760322,93.3592556 L104.154485,86.3791821 C99.9603929,92.5411443 97.1289581,109.151202 98.2442048,119.728671 C98.5768542,122.874721 98.3215866,127.12687 98.3869722,130.406565 C98.4067989,131.373112 98.4438683,132.346884 98.492802,133.327325 C98.7941823,139.400068 99.5351754,145.695016 99.2150232,151.377158 C100.138701,150.913184 100.5795,148.999389 101.57257,149.24941 C101.57257,149.506365 101.564845,149.769516 101.549264,150.036753 C101.292704,154.504938 99.118843,160.402088 101.518627,164.198251 C101.894805,163.696706 101.683805,162.557625 102.608379,162.648005 C103.140059,166.003632 104.382228,168.602579 105.919607,170.885064 C107.362995,173.030056 110.697767,186.741764 110.283886,189.466077 C110.193137,189.95552 111.182728,188.928992 111.006608,189.857441 C110.640475,193.360107 115.432556,200.012145 115.379773,199.184384 L115.366775,199.177951 C115.366775,199.177951 115.027297,174.623329 114.682414,172.397212 C113.982603,167.868283 115.113669,163.184325 114.55536,157.837653 C114.242538,154.843519 113.31886,153.143677 113.318465,149.678345 C113.320521,135.286152 118.007563,128.612468 121.081136,125.60879 C130.400723,116.504052 150.020391,108.925991 180.165378,109.030028 C210.814361,109.135725 233.949298,118.507199 240.534922,128.955163 C242.227039,131.64035 246.246171,133.667172 245.077245,150.20926 C244.834185,153.650891 244.104265,155.353553 243.777785,158.282038 C243.224486,163.237873 242.764361,167.162777 243.545033,172.646943 C244.899597,182.164665 241.424746,198.444129 241.424746,198.444129 C241.394875,204.995268 247.382141,193.720545 247.09687,190.131639 C247.212218,189.425395 248.007813,190.658679 247.820357,189.746207 C246.393948,187.726081 250.968727,173.446915 252.389731,171.271288 C253.902116,168.954818 255.123562,166.322914 255.868958,163.176099 C256.674836,163.219866 256.296364,164.525258 256.948796,164.733543 C259.352034,160.156971 256.428453,153.813379 257.002871,149.590312 C257.946771,150.132538 258.279947,151.322582 259.163576,151.928164 C258.814448,146.102068 259.546688,139.768257 259.963812,133.538457 C260.237719,129.472447 260.377534,125.450203 259.994395,121.644259 Z" id="haircut_color_path" fill="#7F5035" fill-rule="nonzero"></path>
                            <use id="Rectangle" stroke="#FFFFFF" mask="url(#mask-2)" stroke-width="2" opacity="0.01" xlink:href="#path-1"></use>
                        </g>
                    </g>
                </g>
            </g>
        </g>
    </g>
</svg>