<?xml version="1.0" encoding="UTF-8"?>
<svg width="359px" height="329px" viewBox="0 0 359 329" version="1.1" xmlns="http://www.w3.org/2000/svg" xmlns:xlink="http://www.w3.org/1999/xlink">
    <!-- Generator: Sketch 42 (36781) - http://www.bohemiancoding.com/sketch -->
    <title>Layer_1</title>
    <desc>Created with Sketch.</desc>
    <defs>
        <rect id="path-1" x="0" y="0" width="359" height="329"></rect>
        <mask id="mask-2" maskContentUnits="userSpaceOnUse" maskUnits="objectBoundingBox" x="0" y="0" width="359" height="329" fill="white">
            <use xlink:href="#path-1"></use>
        </mask>
    </defs>
    <g id="variations-SVG" stroke="none" stroke-width="1" fill="none" fill-rule="evenodd">
        <g id="haircuts" transform="translate(-35.000000, -4523.000000)">
            <g id="9" transform="translate(35.000000, 4523.000000)">
                <g id="Layer_1">
                    <use id="Rectangle" stroke="#FFFFFF" mask="url(#mask-2)" stroke-width="2" opacity="0.01" xlink:href="#path-1"></use>
                    <path d="M259.007906,86.2040997 C249.745084,68.9611726 237.762324,57.3641095 215.253825,49.5168592 C208.975882,47.3278382 188.167224,44.3550598 181.75358,44.2245258 C174.519636,44.0780145 154.855701,46.2037064 147.946681,48.329161 C133.942504,52.6384691 119.425815,61.6160206 110.922678,71.8904485 C99.9461197,85.1536322 92.0818902,88.4029286 92.0818902,141.075082 C92.4650025,146.0219 92.3204423,148.596116 92.8521223,153.202032 C93.3821413,158.432065 93.9150869,161.52818 96.0407788,164.545489 C98.7618753,165.905984 99.4335017,166.31098 101.254069,169.098886 C102.793743,171.456565 105.450082,172.798003 106.792781,175.273613 C107.326254,176.257166 108.925666,178.345757 110.286267,179.70649 C112.813237,180.289398 114.368228,180.289398 115.745571,179.210087 C116.039991,176.469796 118.401879,173.73441 118.521076,170.987449 C118.744679,165.817397 118.711485,160.63527 118.754355,155.45723 C118.84165,144.823867 114.617458,129.539028 117.301749,116.964608 C120.530586,113.190566 123.275552,111.341682 130.290507,114.192416 C150.114584,122.245894 135.627002,124.893749 156.911103,133.931281 C156.911103,133.931281 171.522153,139.591804 155.778745,148.40046 C155.778745,148.40046 179.567511,145.059756 185.231778,135.600486 C185.231778,135.600486 214.683019,135.600486 224.878404,118.349333 C224.878404,118.349333 230.415021,111.701408 239.832317,115.643818 C242.993316,128.459242 242.599596,144.475319 242.690477,155.493587 C242.732714,160.671865 244.699757,165.853491 244.924257,171.024571 C245.04116,173.744771 245.397222,176.453107 245.690244,179.165582 C247.928963,180.28945 251.067284,180.09506 252.622671,178.928718 C252.83818,178.307185 257.709738,172.978784 258.732417,171.153813 C259.70284,169.423072 260.996368,167.265214 262.230943,165.711357 C263.626451,163.954619 264.941098,163.819972 266.507558,162.21283 C268.753739,158.01887 270.747368,151.785194 271.889243,146.173341 C275.487931,128.499845 272.908837,94.7841172 259.007906,86.2040997 Z" id="haircut_color_path" fill="#4E3827" fill-rule="nonzero"></path>
                </g>
            </g>
        </g>
    </g>
</svg>