<?xml version="1.0" encoding="UTF-8"?>
<svg width="359px" height="329px" viewBox="0 0 359 329" version="1.1" xmlns="http://www.w3.org/2000/svg" xmlns:xlink="http://www.w3.org/1999/xlink">
    <!-- Generator: Sketch 42 (36781) - http://www.bohemiancoding.com/sketch -->
    <title>1</title>
    <desc>Created with Sketch.</desc>
    <defs>
        <rect id="path-1" x="0" y="0" width="359" height="329"></rect>
        <mask id="mask-2" maskContentUnits="userSpaceOnUse" maskUnits="objectBoundingBox" x="0" y="0" width="359" height="329" fill="white">
            <use xlink:href="#path-1"></use>
        </mask>
    </defs>
    <g id="variations-SVG" stroke="none" stroke-width="1" fill="none" fill-rule="evenodd">
        <g id="mouths" transform="translate(0.000000, -82.000000)">
            <g id="1" transform="translate(0.000000, 82.000000)">
                <g id="Group-13">
                    <g id="1">
                        <g transform="translate(140.596478, 243.118122)" id="Group">
                            <g>
                                <path d="M13.6193485,5.83189042 C12.8351753,5.65212121 8.29353629,5.08189042 8.29353629,5.08189042 C9.50185642,6.43742159 11.3808725,8.40368826 12.7035094,9.88187821 C15.0531425,12.5078475 16.924703,14.682722 21.4035216,17.8818782 C28.4035216,22.8818782 41.4035216,19.8818782 48.4035216,20.8818782 C55.4035216,21.8818782 68.7035094,5.08189042 68.7035094,5.08189042 C66.3650741,5.81153866 63.0525061,5.88140023 59.292152,6.08189042 C53.0934957,6.41238317 45.6780705,6.54387034 39.4035216,6.4818538 C25.1249693,6.34072709 14.0789991,5.93726387 13.6193485,5.83189042 Z" id="Shape" fill="#7F5035" fill-rule="nonzero"></path>
                                <path d="M64.1677601,5.78190262 C64.1677601,5.78190262 59.1910643,6.29475223 52.3813212,6.49186356 C48.1877216,6.61324935 43.2989598,6.4316186 38.4492161,6.4818538 C34.7185116,6.52049763 30.9646952,6.48491164 27.5219898,6.41529962 C19.2220625,6.24747385 12.7304087,5.88187821 12.7304087,5.88187821 C12.7304087,5.88187821 15.3830578,9.87710932 17.2710343,10.7428972 C22.1072095,12.9608745 28.8251978,14.7636972 38.4491897,14.553565 C48.0726812,14.7637236 54.7906696,12.9608745 59.6268447,10.7428972 C61.5142944,9.87710932 63.4035216,7.31470717 64.1677601,5.78190262 Z" id="Shape" fill="#FFFCEE"></path>
                                <path d="M49.5162142,18.9218562 C47.5541725,19.1482132 43.0384635,19.5577037 38.5243348,19.5577037 C34.0102061,19.5577037 29.3960596,19.1623477 27.5334826,18.9236723 C19.4035216,17.8818782 20.4035216,16.8818782 23.4035216,18.9236723 C27.7277446,21.8667299 36.4035216,22.3318904 38.5243348,22.3318904 C40.6301221,22.3318904 51.3475516,21.9537708 55.4135314,18.0319026 C55.4425442,18.0039181 53.4898561,18.4639808 49.5162142,18.9218562 Z" id="Shape" fill="#FFFCEE" fill-rule="nonzero"></path>
                                <g id="Group-24" fill-rule="nonzero">
                                    <path d="M69.2261833,4.60083654 C61.9572367,13.0269853 54.9455163,20.2794701 47.9538662,21.2864612 C46.1783043,21.5413696 42.6531508,22.3803971 38.5706123,22.3803971 C34.4878104,22.3803971 30.9618931,21.5413696 29.1863313,21.2864612 C22.2018717,20.2807344 15.1994226,13.0398387 7.93461115,4.62475231 C7.93513793,4.64224138 7.41194087,4.87038944 7.47778826,4.97945906 C9.48252539,7.84458459 14.6098777,17.1903054 18.9588875,22.1918629 C24.2613938,28.2909647 29.1708966,30.731954 38.5706123,30.731954 C47.9695642,30.731954 52.8795674,28.2909647 58.1833644,22.1918629 C62.5316103,17.1902791 67.659226,7.84458459 69.6639632,4.97945906 C69.731865,4.86343595 69.2246557,4.61961621 69.2261833,4.60083654 Z" id="color-burn-path" fill="#D4845A" opacity="0.600000024" style="mix-blend-mode: multiply;"></path>
                                    <path d="M72.2098869,3.70726104 C66.4281695,4.18518144 49.0573368,2.03689699 40.0758311,3.84706823 C39.8191316,3.89966713 39.1549948,4.02440844 38.5808845,4.10337263 C38.0052466,4.02440844 37.3416102,3.89966713 37.0862013,3.84706823 C28.1039581,2.03689699 10.7328357,4.18518144 4.95138173,3.70726104 C4.2296416,3.64757696 2.79435275,3.35139538 0.337691783,2.85432656 C0.9480708,3.37531115 2.13537836,3.6759967 3.19947227,3.9683328 C13.9536952,6.91655774 27.0940961,6.4972942 38.5281539,6.52429164 L38.6333517,6.52429164 C50.0660926,6.4972942 63.2072836,6.91655774 73.9625338,3.9683328 C75.0256005,3.6759967 76.212671,3.37531115 76.8232871,2.85432656 C74.3664154,3.35139538 72.9316533,3.64757696 72.2098869,3.70726104 Z" id="color-burn-path" fill="#D4845A" opacity="0.600000024" style="mix-blend-mode: multiply;"></path>
                                    <path d="M2.51326339,2.49024314 C3.1239058,1.75164607 4.52187234,0.555857373 5.32953015,0.1183146 C5.81464109,-0.145074982 1.21741299,0.56252113 0.339798899,3.06780382 C-0.425927293,5.25878371 1.07210095,7.38107161 1.85402561,9.891227 C1.43449868,6.73697872 1.42936258,5.95813573 1.58679054,4.46703463 C1.667019,3.70494321 2.08396471,3.00867285 2.51326339,2.49024314 Z" id="Shape" fill="#CC8F61"></path>
                                    <path d="M74.6766093,2.49024314 C74.0654665,1.75164607 72.6674999,0.555857373 71.8598421,0.1183146 C71.375495,-0.145074982 75.9727231,0.56252113 76.8490729,3.06780382 C77.6153259,5.25878371 76.1172977,7.38107161 75.3358734,9.891227 C75.7559008,6.73697872 75.7605365,5.95813573 75.6031085,4.46703463 C75.5228537,3.70494321 75.1051178,3.00867285 74.6766093,2.49024314 Z" id="Shape" fill="#DE7D4A"></path>
                                </g>
                            </g>
                            <g transform="translate(38.191489, 0.000000)"></g>
                        </g>
                        <use id="Rectangle" stroke="#FFFFFF" mask="url(#mask-2)" stroke-width="2" opacity="0.01" xlink:href="#path-1"></use>
                    </g>
                </g>
            </g>
        </g>
    </g>
</svg>