<?xml version="1.0" encoding="UTF-8"?>
<svg width="359px" height="329px" viewBox="0 0 359 329" version="1.1" xmlns="http://www.w3.org/2000/svg" xmlns:xlink="http://www.w3.org/1999/xlink">
    <!-- Generator: Sketch 42 (36781) - http://www.bohemiancoding.com/sketch -->
    <title>2</title>
    <desc>Created with Sketch.</desc>
    <defs>
        <rect id="path-1" x="0" y="0" width="359" height="329"></rect>
        <mask id="mask-2" maskContentUnits="userSpaceOnUse" maskUnits="objectBoundingBox" x="0" y="0" width="359" height="329" fill="white">
            <use xlink:href="#path-1"></use>
        </mask>
    </defs>
    <g id="variations-SVG" stroke="none" stroke-width="1" fill="none" fill-rule="evenodd">
        <g id="mouths" transform="translate(0.000000, -593.000000)">
            <g id="2" transform="translate(0.000000, 593.000000)">
                <g>
                    <g>
                        <g transform="translate(136.000000, 245.000000)" id="Group">
                            <g>
                                <path d="M14.8044,6.09997559 L9.21002197,5.45996094 C12.8671077,9.31178951 17,13 23,17 C29,21 37,21 49,21 C61,21 74.710022,5.38000488 74.710022,5.38000488 C55,8 14.8044,6.09997559 14.8044,6.09997559 Z" id="Shape" fill="#7F5035" fill-rule="nonzero"></path>
                                <path d="M63.4467143,15.4923143 C63.4467143,15.4923143 56.7879429,22.0666857 41.3939714,21.5333429 C26,21 19.9788,15.0319429 20,15 C20.2781714,14.3991429 19.9475429,14.5701714 21.4282857,13.8424857 C25.4868857,11.8475143 33.0786857,13.2702286 41.6202571,13.4591143 C50.1618286,13.2702286 57.9896857,11.7799714 62.0449143,13.8424857 C63.4919143,14.5782571 63.4467143,15.4923143 63.4467143,15.4923143 Z" id="Shape" fill="#FFFCF0"></path>
                                <path d="M68.289978,6.26000977 C68.289978,6.26000977 55.1515052,6.85998535 41.8323143,6.7800293 C36.7411335,6.74946657 31.6183985,6.74916659 27.232107,6.64001465 C20.1432896,6.46361091 14.9779714,6.16003418 14.9779714,6.16003418 C14.9779714,6.16003418 16.1063143,9.86982857 18.0772857,11.1184571 C23.1269429,14.3162857 31.7834857,16.1841714 41.8323143,15.8812857 C51.8814286,16.1841714 60.8116571,14.3162857 65.8613429,11.1184571 C67.8323143,9.86985714 68.289978,6.26000977 68.289978,6.26000977 Z" id="Shape" fill="#FFFCF0"></path>
                                <path d="M75.4171429,4.89328571 C67.4941429,12.7250286 59.8507429,19.4666571 52.2299143,20.4027714 C50.2943714,20.6399429 46.452,21.4196571 42.0016857,21.4196571 C37.5513714,21.4196571 33.7084286,20.6399429 31.7728857,20.4027714 C24.1598857,19.4683429 16.5265143,12.7376 8.60771429,4.91505714 C8.60828571,4.93165714 8.03851429,5.14385714 8.10965714,5.24514286 C10.2949143,7.90837143 15.8842,16.5953143 20.6247143,21.2440286 C26.4045714,26.9134 31.7564,29.1820857 42.0016571,29.1820857 C52.2469143,29.1820857 57.5987429,26.9134 63.3802857,21.2440286 C68.1196857,16.5953143 73.7089714,7.90837143 75.8942286,5.24514286 C75.9684571,5.13742857 75.4154571,4.91042857 75.4171429,4.89328571 Z" id="color-burn-path" fill="#D4845A" fill-rule="nonzero" opacity="0.600000024" style="mix-blend-mode: multiply;"></path>
                                <path d="M78.6693714,3.97908571 C72.3674857,4.46751429 53.4327714,2.26911429 43.6425714,4.12208571 C43.363,4.17508571 42.6389429,4.30331429 42.0131143,4.3838 C41.3858857,4.30331429 40.6626571,4.17508571 40.3839429,4.12208571 C30.5929143,2.26911429 11.6579429,4.46751429 5.35602857,3.97908571 C4.5692,3.9184 3.00474286,3.61454286 0.327,3.10548571 C0.991885714,3.63897143 2.28597143,3.94685714 3.44614286,4.24582857 C15.1688,7.26354286 29.4924571,6.83385714 41.9553429,6.86202857 L42.0702857,6.86202857 C54.5323429,6.83385714 68.8565714,7.26354286 80.5797714,4.24582857 C81.7385429,3.94685714 83.0326286,3.63897143 83.6980857,3.10548571 C81.0200857,3.61454286 79.4559143,3.9184 78.6693714,3.97908571 Z" id="color-burn-path" fill="#D4845A" fill-rule="nonzero" opacity="0.600000024" style="mix-blend-mode: multiply;"></path>
                                <path d="M2.69837143,2.73311429 C3.36411429,1.97697143 4.88811429,0.754028571 5.76811429,0.305657143 C6.29714286,0.0358571429 1.2854,0.760457143 0.329228571,3.32434286 C-0.505314286,5.5668 1.12748571,7.73882857 1.97962857,10.3073143 C1.52231429,7.07934286 1.51702857,6.28248571 1.68834286,4.75654286 C1.77594286,3.97614286 2.23045714,3.2638 2.69837143,2.73311429 Z" id="Shape" fill="#CC8F61" fill-rule="nonzero"></path>
                                <path d="M81.3582571,2.73311429 C80.6922286,1.97697143 79.1682571,0.754028571 78.2879429,0.305657143 C77.7597714,0.0358571429 82.7709143,0.760457143 83.7265714,3.32434286 C84.5616857,5.5668 82.9283143,7.73882857 82.0767429,10.3073143 C82.5346,7.07934286 82.5399143,6.28248571 82.3683143,4.75654286 C82.2806857,3.97614286 81.8256,3.2638 81.3582571,2.73311429 Z" id="Shape" fill="#DE8A5D" fill-rule="nonzero"></path>
                                <path d="M81.3582571,2.73311429 C80.6922286,1.97697143 79.1682571,0.754028571 78.2879429,0.305657143 C77.7597714,0.0358571429 82.7709143,0.760457143 83.7265714,3.32434286 C84.5616857,5.5668 82.9283143,7.73882857 82.0767429,10.3073143 C82.5346,7.07934286 82.5399143,6.28248571 82.3683143,4.75654286 C82.2806857,3.97614286 81.8256,3.2638 81.3582571,2.73311429 Z" id="Shape" fill="#BC7048" fill-rule="nonzero"></path>
                            </g>
                            <g transform="translate(41.428571, 3.000000)"></g>
                        </g>
                        <use id="Rectangle" stroke="#FFFFFF" mask="url(#mask-2)" stroke-width="2" opacity="0.01" xlink:href="#path-1"></use>
                    </g>
                </g>
            </g>
        </g>
    </g>
</svg>