<?xml version="1.0" encoding="UTF-8"?>
<svg width="359px" height="329px" viewBox="0 0 359 329" version="1.1" xmlns="http://www.w3.org/2000/svg" xmlns:xlink="http://www.w3.org/1999/xlink">
    <!-- Generator: Sketch 42 (36781) - http://www.bohemiancoding.com/sketch -->
    <title>3</title>
    <desc>Created with Sketch.</desc>
    <defs>
        <rect id="path-1" x="0" y="0" width="359" height="329"></rect>
        <mask id="mask-2" maskContentUnits="userSpaceOnUse" maskUnits="objectBoundingBox" x="0" y="0" width="359" height="329" fill="white">
            <use xlink:href="#path-1"></use>
        </mask>
    </defs>
    <g id="variations-SVG" stroke="none" stroke-width="1" fill="none" fill-rule="evenodd">
        <g id="mouths" transform="translate(0.000000, -1094.000000)">
            <g id="3" transform="translate(0.000000, 1094.000000)">
                <g>
                    <path d="M186.228498,252.000004 C184.208957,251.997735 180.531885,252.941731 178.645206,253.542066 C176.758526,252.941731 173.081455,251.997735 171.061914,252.000004 C168.164593,252.003786 153,257.742396 153,257.742396 C154.861053,258.072442 161.183158,256.422213 165.384708,256.433055 C168.822182,256.441376 174.398871,258.200275 178.472038,258.527799 C178.472038,258.527799 178.58823,258.546205 178.645206,258.541414 C178.701435,258.546205 178.818124,258.527799 178.818124,258.527799 C182.891789,258.200275 188.468976,256.441376 191.905206,256.433055 C196.107005,256.422213 203.135215,258.072442 204.995522,257.742396 C204.995522,257.742396 189.125569,252.003786 186.228498,252.000004" id="Fill-384" fill="#D48E6A" class="color-burn-path" opacity="0.6" ></path>
                    <path d="M189.217575,265.766007 C185.810705,266.003267 182.291872,266.388783 178.796925,266.464171 C175.30148,266.388783 171.782896,266.003267 168.375279,265.766007 C164.857441,265.521184 160.474762,265.084737 161.005709,265.40268 C165.004484,267.336057 169.048044,269.773453 178.796427,269.773453 C188.581384,269.773453 192.589614,267.131071 196.586896,265.197693 C197.11859,264.87975 192.735413,265.521184 189.217575,265.766007" id="Fill-388" fill="#D48E6A"  class="color-burn-path" opacity="0.6" ></path>
                    <use id="Rectangle" stroke="#FFFFFF" mask="url(#mask-2)" stroke-width="2" opacity="0.01" xlink:href="#path-1"></use>
                </g>
            </g>
        </g>
    </g>
</svg>