<?xml version="1.0" encoding="UTF-8"?>
<svg width="359px" height="329px" viewBox="0 0 359 329" version="1.1" xmlns="http://www.w3.org/2000/svg" xmlns:xlink="http://www.w3.org/1999/xlink">
    <!-- Generator: Sketch 42 (36781) - http://www.bohemiancoding.com/sketch -->
    <title>2</title>
    <desc>Created with Sketch.</desc>
    <defs>
        <rect id="path-1" x="0" y="0" width="359" height="329"></rect>
        <mask id="mask-2" maskContentUnits="userSpaceOnUse" maskUnits="objectBoundingBox" x="0" y="0" width="359" height="329" fill="white">
            <use xlink:href="#path-1"></use>
        </mask>
    </defs>
    <g id="variations-SVG" stroke="none" stroke-width="1" fill="none" fill-rule="evenodd">
        <g id="mouths" transform="translate(0.000000, -2857.000000)">
            <g id="6-closed-smile" transform="translate(0.000000, 2857.000000)">
                <g id="2">
                    <g transform="translate(136.000000, 245.000000)" id="Group">
                        <g fill-rule="nonzero" fill="#D18C67">
                            <path d="M72.4687619,4.89328571 C65.3740345,10.3006476 58.5296776,9.7029115 51.7055325,10.3492438 C49.9723318,10.5129969 46.5316429,11.0513442 42.5465657,11.0513442 C38.5614884,11.0513442 35.1202878,10.5129969 33.3870872,10.3492438 C26.5699522,9.70407539 19.7345755,10.3093274 12.643609,4.90831762 C12.6441206,4.91977895 12.1339133,5.06629068 12.1976188,5.13622256 C14.1544286,6.97502663 19.1594089,12.9728543 23.4043486,16.1825205 C28.5799779,20.0968909 33.3723249,21.6632862 42.5465401,21.6632862 C51.7207553,21.6632862 56.5131023,20.0968909 61.6902411,16.1825205 C65.9341829,12.9728543 70.9391632,6.97502663 72.895973,5.13622256 C72.9624417,5.06185212 72.4672525,4.90512186 72.4687619,4.89328571 Z" id="Shape"  class="color-burn-path" opacity="0.6" ></path>
                        </g>
                        <g transform="translate(41.428571, 0.000000)"></g>
                    </g>
                    <use id="Rectangle" stroke="#FFFFFF" mask="url(#mask-2)" stroke-width="2" opacity="0.01" xlink:href="#path-1"></use>
                    <g id="Group-16" transform="translate(140.000000, 236.000000)">
                        <path d="M44.6354075,34.4214237 C42.6296396,34.5740876 40.557955,34.8221462 38.5003327,34.8706547 C36.4424174,34.8221462 34.3708794,34.5740876 32.364672,34.4214237 C30.2935733,34.2638927 27.7133059,33.9830625 28.0258969,34.1876418 C30.3801438,35.4316662 32.7607573,37 38.5000397,37 C44.2608549,37 46.6206681,35.2997685 48.9740361,34.0557441 C49.2870666,33.8511647 46.7065061,34.2638927 44.6354075,34.4214237" id="Fill-388" fill="#D48E6A" ></path>
                        <path d="M70.6779195,9.13773727 C66.3822227,9.60103252 62.0347727,5.73579082 62.2647466,6.0309598 C63.9967714,7.8258494 65.7481941,10.0886556 69.9705972,10.0886556 C74.2088419,10.0886556 75.9449618,7.63554616 77.67634,5.84065656 C77.9066372,5.54548758 74.9736163,8.67444202 70.6779195,9.13773727 Z" id="Fill-388" fill="#B87747" transform="translate(69.972505, 7.954855) rotate(45.000000) translate(-69.972505, -7.954855) "></path>
                        <path d="M7.6779195,9.13773727 C3.38222272,9.60103252 -0.965227313,5.73579082 -0.735253393,6.0309598 C0.996771367,7.8258494 2.74819411,10.0886556 6.97059718,10.0886556 C11.2088419,10.0886556 12.9449618,7.63554616 14.67634,5.84065656 C14.9066372,5.54548758 11.9736163,8.67444202 7.6779195,9.13773727 Z" id="Fill-388" fill="#B87747" transform="translate(6.972505, 7.954855) scale(-1, 1) rotate(45.000000) translate(-6.972505, -7.954855) "  class="color-burn-path" opacity="0.6" ></path>
                    </g>
                </g>
            </g>
        </g>
    </g>
</svg>