<?xml version="1.0" encoding="UTF-8"?>
<svg width="359px" height="329px" viewBox="0 0 359 329" version="1.1" xmlns="http://www.w3.org/2000/svg" xmlns:xlink="http://www.w3.org/1999/xlink">
    <!-- Generator: Sketch 42 (36781) - http://www.bohemiancoding.com/sketch -->
    <title>Group 15</title>
    <desc>Created with Sketch.</desc>
    <defs>
        <rect id="path-1" x="0" y="0" width="359" height="329"></rect>
        <mask id="mask-2" maskContentUnits="userSpaceOnUse" maskUnits="objectBoundingBox" x="0" y="0" width="359" height="329" fill="white">
            <use xlink:href="#path-1"></use>
        </mask>
    </defs>
    <g id="variations-SVG" stroke="none" stroke-width="1" fill="none" fill-rule="evenodd">
        <g id="nose" transform="translate(-1.000000, -52.000000)">
            <g id="1" transform="translate(1.000000, 52.000000)">
                <g id="Group-15">
                    <g>
                        <g id="1" transform="translate(158.560528, 215.462216)">
                            <path  class="color-burn-path" style="opacity:0.3"  d="M33.8756667,0.185979384 C35.2648887,2.40342993 36.1054702,5.20376163 36.7253576,7.34367029 C37.5227169,10.0967762 36.5365599,12.4063341 34.5487851,13.1176704 C34.2164665,11.4569464 31.9174705,10.9983324 29.9235324,12.1056486 C26.5293098,13.991676 23.3351844,16.6239125 19.3684056,16.84487 C15.402654,16.6239125 12.2080281,13.9917023 8.81377924,12.1056486 C6.82034153,10.9983324 4.52084512,11.4569464 4.18902693,13.1176704 C2.20022487,12.4063341 1.21433133,10.0968026 2.011954,7.34367029 C2.63184138,5.20376163 3.47294967,2.40345627 4.86190829,0.185979384 C-0.594944387,5.63869685 -1.14100367,11.968686 2.18892546,15.2223375 C4.92288298,17.8935293 9.8380223,21.6702461 19.3303458,22.3521091 C19.3431992,22.3533997 19.3925847,22.3533997 19.4039105,22.3521091 C28.8998161,21.6923445 33.8141916,17.8935293 36.5484125,15.2223375 C39.8777885,11.9686596 39.3319926,5.63869685 33.8756667,0.185979384 Z" id="Shape" fill="#D4845A"></path>
                            <path d="M13.1566257,16.0672913 C12.6010317,16.1081957 10.6117292,15.6734975 8.13628855,14.8959188 C5.31873118,14.010324 4.2355942,13.4742735 4.98846698,12.515114 C6.33217528,10.804109 8.48609626,12.4865626 11.0417917,13.9030454 C14.0193319,15.5536289 14.654891,15.9566676 13.1566257,16.0672913 Z" id="Shape" fill="#A05942"  class="color-burn-path"></path>
                            <path d="M25.5595884,16.0672913 C26.1151824,16.1081957 28.1044849,15.6737609 30.5796885,14.8959188 C33.3980097,14.0105874 34.4808833,13.4742735 33.7275101,12.5153774 C32.3838018,10.804109 30.2296174,12.4870894 27.6744487,13.9030718 C24.697409,15.5536289 24.0615602,15.9573261 25.5595884,16.0672913 Z" id="Shape" fill="#964F35"  class="color-burn-path"></path>
                        </g>
                        <use id="Rectangle" stroke="#FFFFFF" mask="url(#mask-2)" stroke-width="2" opacity="0.01" xlink:href="#path-1"></use>
                    </g>
                </g>
            </g>
        </g>
    </g>
</svg>