<?xml version="1.0" encoding="UTF-8"?>
<svg width="359px" height="329px" viewBox="0 0 359 329" version="1.1" xmlns="http://www.w3.org/2000/svg" xmlns:xlink="http://www.w3.org/1999/xlink">
    <!-- Generator: Sketch 42 (36781) - http://www.bohemiancoding.com/sketch -->
    <title>2</title>
    <desc>Created with Sketch.</desc>
    <defs>
        <rect id="path-1" x="0" y="0" width="359" height="329"></rect>
        <mask id="mask-2" maskContentUnits="userSpaceOnUse" maskUnits="objectBoundingBox" x="0" y="0" width="359" height="329" fill="white">
            <use xlink:href="#path-1"></use>
        </mask>
    </defs>
    <g id="variations-SVG" stroke="none" stroke-width="1" fill="none" fill-rule="evenodd">
        <g id="nose" transform="translate(-1.000000, -553.000000)">
            <g id="2" transform="translate(1.000000, 553.000000)">
                <g>
                    <g transform="translate(159.681585, 220.311079)" id="Shape">
                        <path  class="color-burn-path" style="opacity:0.3"  d="M32.7331449,0.106757971 C34.1099565,1.96773913 35.3773116,4.73251449 35.992058,6.52815217 C36.7826507,8.83833188 35.3703449,10.3600942 33.4000449,10.9572174 C33.0709043,9.56347101 30.792171,9.17851449 28.8157029,10.1078623 C25.5724029,11.6333696 22.6910391,15.3269696 18.9225681,15.3269696 C15.1546203,15.3269696 12.2735319,11.6333696 9.0300942,10.1078623 C7.05376377,9.17851449 4.77489275,9.56344348 4.44588986,10.9572174 C2.47520435,10.3600942 1.06342174,8.83835942 1.85360145,6.52815217 C2.46818261,4.73251449 3.73608841,1.96773913 5.11303768,0.106757971 C0.509723188,4.93394203 -2.11387391,10.2794406 2.46361159,12.7223449 C5.16855072,14.1658493 13.7901725,18.6474812 18.9225681,18.6474812 C24.0560377,18.6474812 32.6766957,14.1658493 35.3816623,12.7223449 C39.9600841,10.2794406 37.3360739,4.93394203 32.7331449,0.106757971 Z" fill="#D4845A"></path>
                        <path d="M13.0592783,14.1125942 C12.5074797,14.0937594 10.6178609,13.5430348 8.30214638,12.6607464 C5.66604783,11.6565 4.53582319,11.1081986 5.46718116,10.4142855 C6.96151739,9.3001971 9.25313768,10.6022478 11.3059913,12.111371 C13.7799565,13.9294507 14.5484928,14.1631507 13.0592783,14.1125942 Z" fill="#A0624E"  class="color-burn-path"></path>
                        <path d="M24.8334406,14.1125942 C25.3847159,14.0937594 27.2743348,13.5430348 29.5901594,12.6607464 C32.2260101,11.6565 33.3564826,11.1081986 32.4255377,10.4142855 C30.9314768,9.3001971 28.6398565,10.6022478 26.585929,12.111371 C24.112487,13.9294507 23.3444739,14.1631507 24.8334406,14.1125942 Z" fill="#965842"  class="color-burn-path"></path>
                    </g>
                    <use id="Rectangle" stroke="#FFFFFF" mask="url(#mask-2)" stroke-width="2" opacity="0.00999999978" xlink:href="#path-1"></use>
                </g>
            </g>
        </g>
    </g>
</svg>