<?xml version="1.0" encoding="UTF-8"?>
<svg width="359px" height="329px" viewBox="0 0 359 329" version="1.1" xmlns="http://www.w3.org/2000/svg" xmlns:xlink="http://www.w3.org/1999/xlink">
    <!-- Generator: Sketch 42 (36781) - http://www.bohemiancoding.com/sketch -->
    <title>2</title>
    <desc>Created with Sketch.</desc>
    <defs>
        <rect id="path-1" x="0" y="0" width="359" height="329"></rect>
        <mask id="mask-2" maskContentUnits="userSpaceOnUse" maskUnits="objectBoundingBox" x="0" y="0" width="359" height="329" fill="white">
            <use xlink:href="#path-1"></use>
        </mask>
    </defs>
    <g id="variations-SVG" stroke="none" stroke-width="1" fill="none" fill-rule="evenodd">
        <g id="nose" transform="translate(-1.000000, -1089.000000)">
            <g id="3" transform="translate(1.000000, 1089.000000)">
                <g id="2">
                    <g transform="translate(164.681585, 224.311079)" id="Shape">
                        <path  class="color-burn-path" style="opacity:0.3"  d="M24.980558,0.0814731884 C26.0312826,1.50169565 26.9984746,3.6116558 27.4676232,4.98201087 C28.0709703,6.74504275 26.993158,7.90638768 25.489508,8.36208696 C25.2383217,7.29843841 23.4992884,7.0046558 21.9909312,7.71389493 C19.5157812,8.87809783 17.3168457,11.6968978 14.4409072,11.6968978 C11.5653681,11.6968978 9.36664275,8.87809783 6.89138768,7.71389493 C5.38313551,7.0046558 3.6439971,7.29841739 3.39291594,8.36208696 C1.88897174,7.90638768 0.811558696,6.74506377 1.41459058,4.98201087 C1.88361304,3.6116558 2.85122536,1.50169565 3.90205507,0.0814731884 C0.388999275,3.76537681 -1.61321957,7.84483623 1.88012464,9.70915797 C3.94442029,10.8107797 10.524079,14.2309725 14.4409072,14.2309725 C18.3585551,14.2309725 24.9374783,10.8107797 27.0017949,9.70915797 C30.4958536,7.84483623 28.4933196,3.76537681 24.980558,0.0814731884 Z" fill="#D4845A"></path>
                        <path d="M9.9662913,10.7701377 C9.54518188,10.7557638 8.10310435,10.3354739 6.33584855,9.66214855 C4.32408913,8.89575 3.46154928,8.47730942 4.17232246,7.9477442 C5.31273696,7.09751884 7.06160507,8.09118913 8.62825652,9.24288841 C10.5162826,10.6303703 11.1027971,10.8087203 9.9662913,10.7701377 Z" fill="#A0624E" class="color-burn-path"></path>
                        <path d="M18.9518362,10.7701377 C19.3725464,10.7557638 20.8146239,10.3354739 22.5819638,9.66214855 C24.5935341,8.89575 25.456263,8.47730942 24.7458051,7.9477442 C23.6056007,7.09751884 21.8567326,8.09118913 20.2892616,9.24288841 C18.4016348,10.6303703 17.8155196,10.8087203 18.9518362,10.7701377 Z" fill="#965842"  class="color-burn-path"></path>
                    </g>
                    <use id="Rectangle" stroke="#FFFFFF" mask="url(#mask-2)" stroke-width="2" opacity="0.01" xlink:href="#path-1"></use>
                </g>
            </g>
        </g>
    </g>
</svg>