<?xml version="1.0" encoding="UTF-8"?>
<svg width="359px" height="329px" viewBox="0 0 359 329" version="1.1" xmlns="http://www.w3.org/2000/svg" xmlns:xlink="http://www.w3.org/1999/xlink">
    <!-- Generator: Sketch 42 (36781) - http://www.bohemiancoding.com/sketch -->
    <title>2</title>
    <desc>Created with Sketch.</desc>
    <defs>
        <rect id="path-1" x="0" y="0" width="359" height="329"></rect>
        <mask id="mask-2" maskContentUnits="userSpaceOnUse" maskUnits="objectBoundingBox" x="0" y="0" width="359" height="329" fill="white">
            <use xlink:href="#path-1"></use>
        </mask>
    </defs>
    <g id="variations-SVG" stroke="none" stroke-width="1" fill="none" fill-rule="evenodd">
        <g id="nose" transform="translate(-11.000000, -1705.000000)">
            <g id="4" transform="translate(11.000000, 1705.000000)">
                <g id="2">
                    <g transform="translate(157.681585, 216.311079)" id="Shape">
                        <path  class="color-burn-path" style="opacity:0.3"  d="M37.0401377,0.125945714 C38.5981087,2.32140333 40.032221,5.58309521 40.7278551,7.70146508 C41.6224732,10.4268563 40.0243377,12.2221268 37.7947877,12.9265717 C37.4223391,11.2823255 34.8437725,10.8281803 32.6072428,11.924561 C28.9371928,13.7242495 25.6767022,18.0817049 21.4123797,18.0817049 C17.1486493,18.0817049 13.8884703,13.7242495 10.2182645,11.924561 C7.98189058,10.8281803 5.40316812,11.2822931 5.03087536,12.9265717 C2.80088913,12.2221268 1.20334565,10.4268887 2.09749638,7.70146508 C2.79294348,5.58309521 4.22767899,2.32140333 5.7858058,0.125945714 C0.576792029,5.82072556 -2.39201522,12.1269772 2.78777101,15.0089478 C5.84862319,16.711895 15.6046688,21.9990161 21.4123797,21.9990161 C27.2213058,21.9990161 36.9762609,16.711895 40.0371442,15.0089478 C45.2179899,12.1269772 42.2487152,5.82072556 37.0401377,0.125945714 Z" fill="#D4845A"></path>
                        <path d="M14.7776043,16.6490683 C14.1532007,16.6268483 12.0149478,15.9771413 9.39453406,14.9362781 C6.41158043,13.7515372 5.13264203,13.1046889 6.1865471,12.286058 C7.87750652,10.9717331 10.4706558,12.507803 12.7936217,14.2881628 C15.5931087,16.4330082 16.4627681,16.7087114 14.7776043,16.6490683 Z" fill="#A0624E"  class="color-burn-path"></path>
                        <path d="M28.1009986,16.6490683 C28.7248101,16.6268483 30.863063,15.9771413 33.4836014,14.9362781 C36.4662746,13.7515372 37.7454935,13.1046889 36.6920558,12.286058 C35.001408,10.9717331 32.4082587,12.507803 30.0840775,14.2881628 C27.2851826,16.4330082 26.4161152,16.7087114 28.1009986,16.6490683 Z" fill="#965842"  class="color-burn-path"></path>
                    </g>
                    <use id="Rectangle" stroke="#FFFFFF" mask="url(#mask-2)" stroke-width="2" opacity="0.01" xlink:href="#path-1"></use>
                </g>
            </g>
        </g>
    </g>
</svg>