<?xml version="1.0" encoding="UTF-8"?>
<svg width="359px" height="329px" viewBox="0 0 359 329" version="1.1" xmlns="http://www.w3.org/2000/svg" xmlns:xlink="http://www.w3.org/1999/xlink">
    <!-- Generator: Sketch 42 (36781) - http://www.bohemiancoding.com/sketch -->
    <title>2</title>
    <desc>Created with Sketch.</desc>
    <defs>
        <rect id="path-1" x="0" y="0" width="359" height="329"></rect>
        <mask id="mask-2" maskContentUnits="userSpaceOnUse" maskUnits="objectBoundingBox" x="0" y="0" width="359" height="329" fill="white">
            <use xlink:href="#path-1"></use>
        </mask>
    </defs>
    <g id="variations-SVG" stroke="none" stroke-width="1" fill="none" fill-rule="evenodd">
        <g id="eyebrows" transform="translate(0.000000, -573.000000)">
            <g id="2" transform="translate(0.000000, 573.000000)">
                <g>
                    <use id="Rectangle" stroke="#FFFFFF" mask="url(#mask-2)" stroke-width="2" opacity="0.01" xlink:href="#path-1"></use>
                    <g transform="translate(116.681585, 163.311079)" id="haircut_color_path" fill="#7F5035">
                        <path d="M47.0610809,6.81931431 C47.007323,6.84915635 39.858245,4.33950139 37.9383983,3.767946 C35.4999902,3.02792663 21.8860412,-0.82722766 15.7041034,0.48819259 C11.217736,1.44221599 3.84719993,8.27232927 3.78830602,8.4191953 C3.98637498,8.46987146 5.50702839,8.32002913 6.56522238,8.08197762 C5.01111849,9.9797259 0.183424505,14.1571637 0.0676911225,14.6628717 C0.60424204,14.5589645 1.14619244,14.4717562 1.67760726,14.3506233 C5.67836332,13.4357133 8.36959905,12.2000474 12.4369663,11.6750593 C17.4243798,11.0322833 22.5203624,10.7053642 27.5571613,10.782511 C30.4408032,10.8267605 39.6344955,12.0883966 42.931501,12.5835426 C44.9855973,12.5637357 50.4406589,9.87581871 47.0610809,6.81931431 Z"></path>
                        <path d="M121.061081,6.81931431 C121.007323,6.84915635 113.858245,4.33950139 111.938398,3.767946 C109.49999,3.02792663 95.8860412,-0.82722766 89.7041034,0.48819259 C85.217736,1.44221599 77.8471999,8.27232927 77.788306,8.4191953 C77.986375,8.46987146 79.5070284,8.32002913 80.5652224,8.08197762 C79.0111185,9.9797259 74.1834245,14.1571637 74.0676911,14.6628717 C74.604242,14.5589645 75.1461924,14.4717562 75.6776073,14.3506233 C79.6783633,13.4357133 82.369599,12.2000474 86.4369663,11.6750593 C91.4243798,11.0322833 96.5203624,10.7053642 101.557161,10.782511 C104.440803,10.8267605 113.634496,12.0883966 116.931501,12.5835426 C118.985597,12.5637357 124.440659,9.87581871 121.061081,6.81931431 Z" transform="translate(98.103833, 7.439856) scale(-1, 1) translate(-98.103833, -7.439856) "></path>
                    </g>
                </g>
            </g>
        </g>
    </g>
</svg>