<?xml version="1.0" encoding="UTF-8"?>
<svg width="359px" height="329px" viewBox="0 0 359 329" version="1.1" xmlns="http://www.w3.org/2000/svg" xmlns:xlink="http://www.w3.org/1999/xlink">
    <!-- Generator: Sketch 42 (36781) - http://www.bohemiancoding.com/sketch -->
    <title>4</title>
    <desc>Created with Sketch.</desc>
    <defs>
        <rect id="path-1" x="0" y="0" width="359" height="329"></rect>
        <mask id="mask-2" maskContentUnits="userSpaceOnUse" maskUnits="objectBoundingBox" x="0" y="0" width="359" height="329" fill="white">
            <use xlink:href="#path-1"></use>
        </mask>
    </defs>
    <g id="variations-SVG" stroke="none" stroke-width="1" fill="none" fill-rule="evenodd">
        <g id="eyebrows" transform="translate(0.000000, -1186.000000)">
            <g id="3" transform="translate(0.000000, 1186.000000)">
                <g id="4">
                    <path d="M211.748344,165.928919 C208.971997,162.952386 213.786006,164.576119 214.521552,164.781719 C217.656256,165.656652 230.890335,169.595586 234.322448,171.800919 C235.308321,172.434786 235.026867,179.477186 234.262025,179.312386 C229.727377,175.985719 224.432071,174.971052 219.13258,174.633986 C216.056208,174.438519 212.895608,175.616919 209.775552,176.191586 C205.190682,177.036119 200.602411,177.862519 196.026958,178.758252 C193.593796,179.235319 187.780835,179.656386 187.83655,179.436386 C188.481853,176.894786 189.203798,174.372119 189.967333,171.864652 C190.653441,169.615052 193.050768,169.668386 194.595363,169.308119 C200.43108,167.946519 205.975927,167.196919 211.748344,165.928919 Z M185.97307,179.821746 C185.843853,179.414812 186.768255,173.934812 187.442855,171.627879 C187.582536,171.149746 188.097575,170.787346 188.439452,170.371612 C188.498045,170.839612 188.70338,171.348412 188.592735,171.770546 C187.898779,174.418546 186.114059,179.774812 185.97307,179.821746 Z M145.206228,165.893506 C150.979691,167.162039 156.524276,167.911106 162.360255,169.272972 C163.904066,169.632972 166.301654,169.580172 166.987239,171.829772 C167.751297,174.336706 168.47298,176.859372 169.11776,179.401239 C169.17426,179.620706 163.361823,179.199906 160.927876,178.723372 C156.352422,177.827639 151.764674,177.000972 147.180066,176.156439 C144.059225,175.581506 140.898887,174.403106 137.822515,174.598839 C132.522501,174.935906 127.227718,175.950839 122.692809,179.276972 C121.928489,179.442572 121.645989,172.399639 122.63317,171.765772 C126.06476,169.560172 139.298839,165.621772 142.433019,164.746572 C143.169874,164.540972 148.577918,162.619372 145.206228,165.893506 Z M170.982365,179.786466 C170.841115,179.739532 169.055087,174.382999 168.362177,171.735532 C168.251793,171.313666 168.456082,170.804599 168.514675,170.336332 C168.857599,170.752066 169.371853,171.114199 169.512057,171.592332 C170.186395,173.899532 171.111059,179.379532 170.982365,179.786466 Z" id="haircut_color_path" fill="#7F563F"></path>
                    <use id="Rectangle" stroke="#FFFFFF" mask="url(#mask-2)" stroke-width="2" opacity="0.01" xlink:href="#path-1"></use>
                </g>
            </g>
        </g>
    </g>
</svg>