<?xml version="1.0" encoding="UTF-8"?>
<svg width="359px" height="329px" viewBox="0 0 359 329" version="1.1" xmlns="http://www.w3.org/2000/svg" xmlns:xlink="http://www.w3.org/1999/xlink">
    <!-- Generator: Sketch 42 (36781) - http://www.bohemiancoding.com/sketch -->
    <title>Group 5</title>
    <desc>Created with Sketch.</desc>
    <defs>
        <rect id="path-1" x="0" y="0" width="359" height="329"></rect>
        <mask id="mask-2" maskContentUnits="userSpaceOnUse" maskUnits="objectBoundingBox" x="0" y="0" width="359" height="329" fill="white">
            <use xlink:href="#path-1"></use>
        </mask>
    </defs>
    <g id="variations-SVG" stroke="none" stroke-width="1" fill="none" fill-rule="evenodd">
        <g id="eyebrows" transform="translate(0.000000, -1867.000000)">
            <g id="4" transform="translate(0.000000, 1867.000000)">
                <g id="Group-5">
                    <g id="Group-8" transform="translate(187.000000, 158.000000)"></g>
                    <g id="Group-6" transform="translate(122.000000, 158.000000)" fill="#7F563F">
                        <path d="M23.2062277,1.89350577 C28.9796907,3.1620391 34.5242763,3.91110577 40.3602555,5.27297244 C41.9040657,5.63297244 44.3016536,5.58017244 44.9872393,7.82977244 C45.7512972,10.3367058 46.47298,12.8593724 47.1177601,15.4012391 C47.1742601,15.6207058 41.3618226,15.1999058 38.9278759,14.7233724 C34.3524222,13.8276391 29.7646745,13.0009724 25.1800657,12.1564391 C22.0592254,11.5815058 18.8988874,10.4031058 15.8225147,10.5988391 C10.5225009,10.9359058 5.22771845,11.9508391 0.692808731,15.2769724 C-0.0715107131,15.4425724 -0.354010713,8.3996391 0.633169842,7.76577244 C4.06476012,5.56017244 17.2988388,1.62177244 20.4330194,0.746572438 C21.1698735,0.540972438 26.5779175,-1.38062756 23.2062277,1.89350577 Z M48.9823647,15.7864658 C48.8411147,15.7395324 47.055087,10.3829991 46.3621772,7.73553244 C46.251793,7.31366577 46.4560823,6.8045991 46.5146749,6.33633244 C46.8575985,6.75206577 47.3718532,7.1141991 47.5120569,7.59233244 C48.1863948,9.89953244 49.1110592,15.3795324 48.9823647,15.7864658 Z M89.7483441,1.9289191 C86.9719969,-1.04761423 91.7860062,0.576119105 92.5215525,0.781719105 C95.6562562,1.65665244 108.890335,5.59558577 112.322448,7.8009191 C113.308321,8.43478577 113.026867,15.4771858 112.262025,15.3123858 C107.727377,11.9857191 102.432071,10.9710524 97.1325803,10.6339858 C94.0562076,10.4385191 90.895608,11.6169191 87.7755525,12.1915858 C83.1906821,13.0361191 78.6024113,13.8625191 74.0269576,14.7582524 C71.5937955,15.2353191 65.7808349,15.6563858 65.8365502,15.4363858 C66.4818534,12.8947858 67.2037979,10.3721191 67.9673326,7.86465244 C68.6534414,5.61505244 71.0507678,5.66838577 72.5953627,5.3081191 C78.4310803,3.9465191 83.9759275,3.1969191 89.7483441,1.9289191 Z M63.9730703,15.8217458 C63.8438527,15.4148124 64.7682555,9.93481244 65.442855,7.6278791 C65.5825356,7.14974577 66.0975749,6.78734577 66.4394522,6.37161244 C66.4980448,6.83961244 66.7033805,7.34841244 66.5927347,7.77054577 C65.8987786,10.4185458 64.1140587,15.7748124 63.9730703,15.8217458 Z" id="haircut_color_path"></path>
                    </g>
                    <use id="Rectangle" stroke="#FFFFFF" mask="url(#mask-2)" stroke-width="2" opacity="0.01" xlink:href="#path-1"></use>
                </g>
            </g>
        </g>
    </g>
</svg>