<?xml version="1.0" encoding="UTF-8"?>
<svg width="359px" height="329px" viewBox="0 0 359 329" version="1.1" xmlns="http://www.w3.org/2000/svg" xmlns:xlink="http://www.w3.org/1999/xlink">
    <!-- Generator: Sketch 42 (36781) - http://www.bohemiancoding.com/sketch -->
    <title>5</title>
    <desc>Created with Sketch.</desc>
    <defs>
        <rect id="path-1" x="0" y="0" width="359" height="329"></rect>
        <mask id="mask-2" maskContentUnits="userSpaceOnUse" maskUnits="objectBoundingBox" x="0" y="0" width="359" height="329" fill="white">
            <use xlink:href="#path-1"></use>
        </mask>
    </defs>
    <g id="variations-SVG" stroke="none" stroke-width="1" fill="none" fill-rule="evenodd">
        <g id="eyebrows" transform="translate(0.000000, -2341.000000)">
            <g id="5" transform="translate(0.000000, 2341.000000)">
                <g id="Group-14">
                    <g id="5">
                        <g id="3" stroke="#FFFFFF" stroke-width="2" opacity="0.01">
                            <use id="Rectangle" mask="url(#mask-2)" xlink:href="#path-1"></use>
                        </g>
                        <g id="Group-5" transform="translate(120.000000, 155.000000)" fill="#7F563F">
                            <g id="Group-8" transform="translate(91.000000, 13.000000) rotate(11.000000) translate(-91.000000, -13.000000) translate(66.000000, 5.000000)">
                                <path d="M26.7483441,1.9289191 C23.9719969,-1.04761423 28.7860062,0.576119105 29.5215525,0.781719105 C32.6562562,1.65665244 45.8903349,5.59558577 49.3224483,7.8009191 C50.308321,8.43478577 50.0268673,15.4771858 49.2620247,15.3123858 C44.7273766,11.9857191 39.432071,10.9710524 34.1325803,10.6339858 C31.0562076,10.4385191 27.895608,11.6169191 24.7755525,12.1915858 C20.1906821,13.0361191 15.6024113,13.8625191 11.0269576,14.7582524 C8.59379554,15.2353191 2.78083489,15.6563858 2.83655017,15.4363858 C3.48185341,12.8947858 4.20379785,10.3721191 4.96733257,7.86465244 C5.65344137,5.61505244 8.05076776,5.66838577 9.59536267,5.3081191 C15.4310803,3.9465191 20.9759275,3.1969191 26.7483441,1.9289191" id="haircut_color_path"></path>
                            </g>
                            <g id="Group-6" transform="translate(25.500000, 13.000000) rotate(-9.000000) translate(-25.500000, -13.000000) translate(1.000000, 5.000000)">
                                <path d="M23.2062277,1.89350577 C26.5779175,-1.38062756 21.1698735,0.540972438 20.4330194,0.746572438 C17.2988388,1.62177244 4.06476012,5.56017244 0.633169842,7.76577244 C-0.354010713,8.3996391 -0.0715107131,15.4425724 0.692808731,15.2769724 C5.22771845,11.9508391 10.5225009,10.9359058 15.8225147,10.5988391 C18.8988874,10.4031058 22.0592254,11.5815058 25.1800657,12.1564391 C29.7646745,13.0009724 34.3524222,13.8276391 38.9278759,14.7233724 C41.3618226,15.1999058 47.1742601,15.6207058 47.1177601,15.4012391 C46.47298,12.8593724 45.7512972,10.3367058 44.9872393,7.82977244 C44.3016536,5.58017244 41.9040657,5.63297244 40.3602555,5.27297244 C34.5242763,3.91110577 28.9796907,3.1620391 23.2062277,1.89350577" id="haircut_color_path"></path>
                            </g>
                        </g>
                    </g>
                </g>
            </g>
        </g>
    </g>
</svg>