<?xml version="1.0" encoding="UTF-8"?>
<svg width="359px" height="329px" viewBox="0 0 359 329" version="1.1" xmlns="http://www.w3.org/2000/svg" xmlns:xlink="http://www.w3.org/1999/xlink">
    <!-- Generator: Sketch 42 (36781) - http://www.bohemiancoding.com/sketch -->
    <title>1</title>
    <desc>Created with Sketch.</desc>
    <defs>
        <rect id="path-1" x="0" y="0" width="359" height="329"></rect>
        <mask id="mask-2" maskContentUnits="userSpaceOnUse" maskUnits="objectBoundingBox" x="0" y="0" width="359" height="329" fill="white">
            <use xlink:href="#path-1"></use>
        </mask>
    </defs>
    <g id="variations-SVG" stroke="none" stroke-width="1" fill="none" fill-rule="evenodd">
        <g id="eyebrows" transform="translate(0.000000, -2929.000000)">
            <g id="6" transform="translate(0.000000, 2929.000000)">
                <g id="1">
                    <use id="Rectangle" stroke="#FFFFFF" mask="url(#mask-2)" stroke-width="2" opacity="0.01" xlink:href="#path-1"></use>
                    <g transform="translate(120.681585, 160.311079)" id="haircut_color_path" fill="#7F5035">
                        <path d="M15.6685943,0.0327344533 C23.7968532,-0.506181398 40.1942013,5.76876051 41.8675489,7.10369833 C42.5809775,9.31804523 43.3282123,12.8929017 43.9298793,15.137136 C43.9830566,15.3311685 26.4989973,6.11875322 14.4981985,7.12115952 C9.5495134,7.41943834 4.31051122,9.93920726 0.0765940358,12.8771519 C-0.637206557,13.0224964 3.56729447,0.834585086 15.6685943,0.0327344533 Z M101.261406,0.0327344533 C113.362706,0.834585086 117.567207,13.0224964 116.853406,12.8771519 C112.619489,9.93920726 107.380487,7.41943834 102.431802,7.12115952 C90.431003,6.11875322 72.9469438,15.3311685 73.000121,15.137136 C73.601788,12.8929017 74.3490228,9.31804523 75.0624514,7.10369833 C76.735799,5.76876051 93.1331471,-0.506181398 101.261406,0.0327344533 Z"></path>
                    </g>
                </g>
            </g>
        </g>
    </g>
</svg>