<?xml version="1.0" encoding="UTF-8"?>
<svg width="359px" height="329px" viewBox="0 0 359 329" version="1.1" xmlns="http://www.w3.org/2000/svg" xmlns:xlink="http://www.w3.org/1999/xlink">
    <!-- Generator: Sketch 42 (36781) - http://www.bohemiancoding.com/sketch -->
    <title>2</title>
    <desc>Created with Sketch.</desc>
    <defs>
        <rect id="path-1" x="0" y="0" width="359" height="329"></rect>
        <mask id="mask-2" maskContentUnits="userSpaceOnUse" maskUnits="objectBoundingBox" x="0" y="0" width="359" height="329" fill="white">
            <use xlink:href="#path-1"></use>
        </mask>
    </defs>
    <g id="variations-SVG" stroke="none" stroke-width="1" fill="none" fill-rule="evenodd">
        <g id="eyebrows" transform="translate(0.000000, -4402.000000)">
            <g id="8" transform="translate(0.000000, 4402.000000)">
                <g id="2">
                    <use id="Rectangle" stroke="#FFFFFF" mask="url(#mask-2)" stroke-width="2" opacity="0.01" xlink:href="#path-1"></use>
                    <g transform="translate(116.681585, 158.311079)" id="haircut_color_path" fill="#7F5035">
                        <path d="M47.0610809,6.81931431 C50.4406589,9.87581871 44.9855973,12.5637357 42.931501,12.5835426 C39.6344955,12.0883966 30.4408032,10.8267605 27.5571613,10.782511 C22.5203624,10.7053642 17.4243798,11.0322833 12.4369663,11.6750593 C8.36959905,12.2000474 5.67836332,13.4357133 1.67760726,14.3506233 C1.14619244,14.4717562 0.60424204,14.5589645 0.0676911225,14.6628717 C0.183424505,14.1571637 5.01111849,9.9797259 6.56522238,8.08197762 C5.50702839,8.32002913 3.98637498,8.46987146 3.78830602,8.4191953 C3.84719993,8.27232927 11.217736,1.44221599 15.7041034,0.48819259 C21.8860412,-0.82722766 35.4999902,3.02792663 37.9383983,3.767946 C39.858245,4.33950139 47.007323,6.84915635 47.0610809,6.81931431 Z M75.1465843,6.81931431 C75.2003421,6.84915635 82.3494202,4.33950139 84.2692669,3.767946 C86.7076749,3.02792663 100.321624,-0.82722766 106.503562,0.48819259 C110.989929,1.44221599 118.360465,8.27232927 118.419359,8.4191953 C118.22129,8.46987146 116.700637,8.32002913 115.642443,8.08197762 C117.196547,9.9797259 122.024241,14.1571637 122.139974,14.6628717 C121.603423,14.5589645 121.061473,14.4717562 120.530058,14.3506233 C116.529302,13.4357133 113.838066,12.2000474 109.770699,11.6750593 C104.783285,11.0322833 99.6873028,10.7053642 94.6505038,10.782511 C91.766862,10.8267605 82.5731696,12.0883966 79.2761642,12.5835426 C77.2220679,12.5637357 71.7670063,9.87581871 75.1465843,6.81931431 Z"></path>
                    </g>
                </g>
            </g>
        </g>
    </g>
</svg>