<?xml version="1.0" standalone="no"?>
<!DOCTYPE svg PUBLIC "-//W3C//DTD SVG 20010904//EN"
 "http://www.w3.org/TR/2001/REC-SVG-20010904/DTD/svg10.dtd">
<svg version="1.0" xmlns="http://www.w3.org/2000/svg"
 width="300.000000pt" height="294.000000pt" viewBox="0 0 300.000000 294.000000"
 preserveAspectRatio="xMidYMid meet">
<metadata>
Created by potrace 1.11, written by Peter Selinger 2001-2013
</metadata>
<g transform="translate(0.000000,294.000000) scale(0.100000,-0.100000)"
fill="#000000" stroke="none">
<path d="M1375 2926 c-16 -7 -46 -11 -66 -8 -52 6 -102 -13 -146 -57 -30 -30
-60 -46 -148 -75 -461 -156 -821 -545 -930 -1007 -15 -63 -41 -157 -57 -209
-24 -75 -29 -105 -24 -145 8 -61 8 -59 0 -120 -5 -45 -2 -55 26 -97 17 -26 49
-101 70 -167 101 -312 246 -516 507 -713 224 -169 471 -260 768 -284 50 -4
112 -15 138 -25 54 -22 117 -25 135 -7 6 6 38 12 69 12 48 1 66 7 105 34 26
18 86 46 135 63 244 86 464 229 616 403 199 228 311 457 352 716 10 66 28 130
47 173 24 55 29 76 24 110 -9 54 -9 83 0 129 5 34 2 44 -40 99 -29 39 -55 91
-72 143 -55 165 -129 303 -235 438 -155 196 -391 367 -624 451 -78 28 -269 72
-356 82 -33 3 -84 20 -124 41 -74 36 -120 42 -170 20z m92 -58 c22 -21 43 -17
43 8 0 18 2 18 57 -10 34 -17 85 -29 173 -41 204 -26 413 -107 587 -227 103
-71 250 -213 329 -317 73 -98 161 -268 199 -386 14 -43 34 -94 45 -113 24 -40
25 -52 5 -52 -25 0 -28 -25 -6 -61 25 -41 28 -94 5 -103 -28 -11 -33 -6 -27
28 7 43 -30 128 -53 119 -17 -6 -17 -5 1 -39 38 -74 28 -124 -26 -124 l-28 0
15 35 c13 31 12 39 -3 75 -12 26 -24 40 -36 40 -15 0 -17 -4 -11 -17 4 -10 9
-37 12 -60 3 -36 0 -44 -22 -58 -31 -21 -71 -12 -60 13 29 70 29 72 10 107
-25 46 -51 48 -40 3 18 -75 -1 -108 -62 -108 -43 0 -50 14 -28 55 14 27 16 41
8 72 -5 23 -16 39 -26 41 -15 3 -18 -4 -18 -37 0 -28 -7 -48 -20 -61 -23 -23
-77 -27 -104 -7 -17 12 -16 15 8 44 33 39 38 123 8 123 -13 0 -22 -12 -31 -39
-22 -75 -75 -95 -138 -54 l-24 16 31 32 c30 30 55 99 44 117 -9 14 -33 8 -38
-10 -8 -24 -85 -82 -110 -82 -23 0 -86 40 -86 55 0 6 21 23 48 39 49 28 80 72
63 89 -9 9 -18 7 -51 -11 -8 -5 -41 -22 -72 -37 l-58 -29 -42 30 c-24 16 -43
36 -43 44 0 8 19 20 46 27 51 15 95 54 86 77 -8 20 -36 21 -43 1 -4 -9 -19
-15 -35 -15 -16 0 -46 -7 -66 -15 -49 -21 -67 -19 -102 11 -38 32 -39 49 -3
62 15 5 48 17 75 27 48 17 61 40 31 52 -10 3 -22 0 -28 -8 -7 -9 -30 -15 -61
-16 -27 0 -65 -4 -83 -8 -29 -7 -38 -3 -68 26 -58 56 -45 69 73 69 66 0 74 2
71 18 -2 11 -14 18 -38 20 -78 6 -126 6 -151 -2 -20 -6 -32 -2 -57 19 -18 15
-32 33 -32 41 0 20 47 36 83 28 39 -8 99 4 94 19 -2 7 -18 11 -34 10 -18 -2
-36 4 -43 12 -15 18 -40 19 -92 3 -34 -10 -41 -9 -58 8 -11 10 -21 30 -22 44
-3 22 1 25 32 28 19 2 59 -1 87 -8 57 -12 75 -8 66 16 -4 11 -14 14 -31 11
-15 -3 -41 3 -61 14 -26 14 -47 18 -77 13 -46 -7 -68 10 -62 48 3 21 8 23 60
23 40 0 62 -6 77 -19 21 -19 41 -15 41 10 0 8 -9 14 -21 14 -11 0 -32 9 -46
20 -19 14 -41 20 -79 20 l-54 0 0 36 0 37 50 -5 c28 -3 59 -13 70 -23 19 -18
50 -15 50 5 0 6 -8 13 -17 16 -10 3 -35 14 -55 24 -24 13 -47 18 -66 14 -33
-7 -46 6 -37 36 9 27 54 26 89 -1 19 -15 31 -18 38 -11 27 27 -18 52 -93 52
-22 0 -29 5 -29 19 0 36 57 35 97 -1z m-226 -9 c15 -7 24 -7 34 1 17 14 57 9
62 -7 3 -7 -8 -15 -24 -19 -15 -4 -41 -14 -58 -22 -16 -9 -37 -15 -47 -14 -22
4 -32 -16 -18 -33 16 -20 29 -19 37 3 4 9 11 20 17 24 18 13 63 9 75 -6 9 -11
7 -15 -12 -20 -13 -3 -44 -22 -70 -43 -35 -28 -43 -40 -35 -50 16 -20 38 -16
38 7 0 39 72 53 93 18 9 -13 0 -27 -47 -72 -38 -36 -56 -61 -52 -71 9 -23 33
-18 40 10 9 34 42 50 72 36 33 -15 31 -51 -6 -86 -16 -15 -34 -43 -40 -61 -6
-19 -20 -34 -32 -37 -18 -5 -19 -8 -8 -21 15 -20 40 -21 40 -2 0 17 69 96 84
96 14 0 46 -52 46 -75 0 -10 -8 -32 -19 -49 -10 -17 -22 -42 -26 -56 -4 -14
-15 -30 -23 -36 -18 -13 -9 -44 13 -44 8 0 15 8 15 18 0 9 18 37 40 62 l39 45
25 -30 c14 -16 25 -39 25 -50 1 -42 -28 -139 -43 -147 -14 -8 -23 -38 -12 -38
2 0 11 -3 19 -6 10 -3 23 12 42 48 44 85 49 88 91 48 35 -34 36 -36 29 -90 -4
-30 -8 -68 -9 -85 0 -16 -7 -35 -15 -41 -17 -14 -8 -44 14 -44 9 0 18 8 21 18
3 9 14 35 25 58 10 23 19 49 19 58 0 26 30 18 66 -18 33 -33 34 -37 34 -109 0
-54 -4 -80 -15 -91 -19 -18 -19 -42 -2 -49 25 -9 42 18 70 116 6 20 15 37 19
37 5 0 25 -15 46 -34 37 -34 37 -35 41 -125 2 -58 -1 -97 -8 -105 -8 -10 -8
-16 3 -26 18 -14 36 -5 36 19 0 10 7 32 15 47 8 16 15 46 15 67 l0 38 41 -23
c58 -32 71 -63 68 -161 -2 -74 0 -82 17 -82 20 0 35 43 38 107 2 50 9 54 52
28 37 -24 73 -85 74 -127 0 -12 6 -24 13 -26 9 -4 9 -7 -1 -15 -19 -13 -20
-66 -1 -70 20 -4 44 94 34 138 -8 37 8 39 65 10 46 -23 57 -58 46 -146 -5 -44
-3 -54 9 -54 10 0 15 10 15 29 0 17 4 33 10 36 5 3 10 16 9 28 0 56 6 72 26
69 67 -12 93 -51 82 -120 -12 -74 -12 -77 3 -77 8 0 14 6 12 14 -2 8 5 29 14
47 15 27 16 39 7 68 -6 20 -8 38 -5 40 16 10 64 -9 82 -32 23 -29 25 -60 7
-105 -15 -35 -12 -57 7 -57 19 0 41 116 27 146 -15 33 -14 34 9 34 51 0 92
-89 55 -120 -8 -7 -15 -19 -15 -26 0 -8 7 -14 15 -14 8 0 15 7 15 15 0 9 7 27
16 40 16 25 15 33 -11 98 -11 26 27 22 53 -6 16 -17 19 -26 11 -34 -13 -13 -3
-33 17 -33 18 0 18 11 -3 55 -18 37 -14 51 12 42 24 -10 20 -92 -6 -129 -15
-20 -24 -55 -31 -111 -16 -147 -58 -278 -145 -450 -165 -327 -448 -568 -823
-701 -41 -15 -86 -34 -99 -43 -22 -14 -25 -13 -44 6 l-21 21 22 0 c26 0 29 22
6 41 -15 12 -19 11 -32 -9 -16 -25 -44 -29 -61 -8 -9 11 -6 15 16 21 16 3 42
17 60 31 17 13 36 24 42 24 16 0 13 26 -4 40 -12 10 -20 7 -44 -19 -30 -32
-59 -39 -79 -19 -17 17 -15 28 5 28 24 0 103 79 96 96 -7 18 -43 18 -43 1 0
-24 -37 -49 -67 -45 -37 4 -42 33 -10 66 14 15 32 42 41 60 9 17 21 32 26 32
6 0 10 9 10 20 0 13 -7 20 -20 20 -12 0 -20 -7 -20 -16 0 -21 -57 -74 -79 -74
-10 0 -23 11 -29 24 -8 19 -6 32 14 72 13 26 24 53 24 60 0 7 9 18 20 24 11 6
17 16 14 25 -11 28 -39 15 -66 -31 -36 -58 -54 -64 -84 -28 -27 34 -30 62 -9
90 8 10 15 34 15 52 0 21 5 32 14 32 24 0 30 21 12 38 -15 16 -18 15 -41 -13
-14 -17 -32 -42 -40 -57 -9 -16 -19 -28 -23 -28 -4 0 -25 17 -46 39 l-37 38
15 38 c9 21 16 49 16 63 0 14 7 33 16 43 18 20 11 39 -15 39 -11 0 -27 -20
-46 -60 -16 -33 -34 -60 -40 -60 -6 0 -26 16 -45 35 -34 35 -34 36 -22 80 7
25 12 57 12 71 0 14 7 32 15 41 12 12 13 18 4 29 -16 19 -38 18 -46 -3 -3 -10
-14 -36 -24 -59 -11 -22 -19 -46 -19 -52 0 -21 -19 -13 -61 25 l-41 37 7 76
c4 41 13 82 21 91 11 12 11 18 2 27 -31 31 -60 -6 -75 -95 -3 -18 -10 -33 -15
-33 -5 0 -30 17 -55 37 l-44 37 4 70 c3 39 7 82 9 96 2 19 -2 25 -15 25 -20 0
-45 -52 -54 -112 -3 -18 -7 -33 -9 -33 -18 0 -86 45 -104 67 -18 23 -21 36
-16 72 3 24 11 50 17 57 12 15 6 44 -10 44 -16 0 -51 -79 -51 -115 0 -41 -10
-43 -65 -12 -37 21 -40 26 -43 70 -2 34 3 58 16 82 21 35 14 55 -19 55 -18 0
-26 -27 -36 -113 -5 -47 -6 -48 -32 -42 -45 11 -68 32 -75 70 -8 41 0 75 21
90 19 14 6 45 -18 45 -26 0 -52 -63 -51 -122 1 -27 -3 -48 -8 -48 -18 0 -79
46 -89 67 -12 27 0 70 26 88 20 15 10 45 -15 45 -12 0 -24 -14 -36 -41 -17
-38 -17 -64 -1 -116 6 -20 4 -23 -16 -23 -65 1 -98 83 -49 120 15 12 21 23 17
35 -19 49 -69 -37 -63 -107 5 -51 -3 -63 -34 -53 -40 13 -51 85 -13 85 19 0
12 24 -9 28 -25 5 -43 -52 -30 -94 9 -30 8 -34 -8 -34 -10 0 -23 7 -31 16 -10
13 -10 17 1 24 12 7 12 13 1 32 -10 20 -9 32 4 69 9 24 27 92 40 152 38 174
87 304 157 420 26 44 48 82 48 84 0 15 124 154 211 238 160 154 336 260 541
326 81 26 101 37 123 65 28 37 36 40 66 23z m-981 -1463 c0 -2 -7 -20 -15 -40
-14 -32 -14 -39 0 -66 8 -16 14 -33 13 -36 -2 -4 5 -12 14 -18 28 -17 43 5 29
45 -14 42 -14 82 1 97 14 14 84 16 93 2 3 -5 -4 -23 -16 -39 -12 -16 -22 -43
-23 -59 -1 -17 -4 -34 -8 -37 -13 -13 4 -35 27 -35 20 0 23 7 29 52 4 28 11
59 16 69 13 23 60 32 95 19 l28 -11 -25 -27 c-37 -39 -46 -62 -41 -104 4 -32
9 -38 29 -38 19 0 24 5 24 25 0 30 22 76 44 94 10 8 29 11 53 6 69 -11 71 -19
26 -68 -47 -51 -60 -82 -43 -102 19 -23 24 -19 68 39 49 64 78 75 130 48 20
-10 37 -23 39 -29 2 -5 -15 -22 -37 -37 -22 -14 -40 -31 -40 -38 0 -6 -7 -20
-16 -30 -14 -14 -14 -20 -4 -33 17 -21 41 -19 47 5 6 22 87 80 113 80 19 0
110 -58 110 -70 0 -4 -17 -15 -37 -25 -21 -9 -55 -29 -76 -42 -29 -20 -35 -29
-26 -39 13 -16 49 -19 49 -4 0 6 8 10 18 10 9 0 37 7 62 16 43 15 47 15 92 -4
55 -24 78 -56 51 -71 -10 -5 -39 -12 -65 -16 -26 -4 -55 -13 -65 -20 -17 -13
-17 -15 -1 -31 14 -14 20 -15 32 -5 8 7 25 9 40 5 15 -3 47 -1 71 6 40 11 47
10 79 -10 62 -38 42 -64 -58 -76 -64 -8 -71 -13 -51 -40 11 -15 17 -17 32 -8
12 8 25 8 40 1 17 -7 34 -5 68 8 25 9 56 14 69 11 30 -7 76 -44 76 -61 0 -22
-66 -38 -126 -30 -50 6 -54 5 -54 -14 0 -17 7 -21 38 -21 192 -3 201 -5 224
-28 18 -18 20 -26 12 -40 -12 -17 -48 -20 -139 -11 -31 3 -40 1 -40 -11 0 -10
11 -15 35 -16 19 0 52 -6 73 -13 22 -8 53 -10 76 -6 35 6 41 4 56 -19 10 -14
15 -33 11 -41 -7 -19 -67 -19 -120 0 -22 8 -43 12 -48 9 -41 -25 69 -70 151
-62 48 5 50 4 61 -25 8 -23 7 -33 -2 -39 -21 -12 -63 -9 -84 7 -23 17 -50 19
-60 4 -13 -21 22 -39 94 -45 67 -6 72 -8 72 -30 0 -20 -5 -24 -31 -24 -17 0
-44 8 -60 17 -22 13 -32 14 -40 6 -29 -29 20 -53 109 -53 29 0 33 -3 30 -22
-4 -29 -28 -33 -72 -13 -38 18 -61 12 -52 -12 4 -9 1 -22 -5 -30 -15 -18 2
-38 34 -39 88 -3 90 -4 77 -19 -17 -21 -60 -19 -122 6 -36 14 -91 24 -173 29
-315 22 -620 161 -859 391 -113 108 -193 213 -259 339 -67 126 -145 354 -134
384 4 9 -4 26 -18 40 -30 30 -41 70 -29 104 16 45 34 39 32 -12 -1 -30 4 -52
15 -63 8 -10 15 -22 14 -28 0 -5 7 -11 16 -13 23 -5 22 23 -1 56 -10 15 -22
36 -26 46 -8 23 18 66 40 66 13 0 15 -7 10 -35 -5 -23 -2 -45 8 -63 8 -15 17
-35 20 -44 6 -20 36 -25 36 -7 0 6 -8 33 -17 59 -22 63 -9 100 37 100 16 0 30
-2 30 -4z"/>
</g>
</svg>
