<?xml version="1.0" encoding="UTF-8"?>
<svg width="359px" height="329px" viewBox="0 0 359 329" version="1.1" xmlns="http://www.w3.org/2000/svg" xmlns:xlink="http://www.w3.org/1999/xlink">
    <!-- Generator: Sketch 42 (36781) - http://www.bohemiancoding.com/sketch -->
    <title>2</title>
    <desc>Created with Sketch.</desc>
    <defs>
        <rect id="path-1" x="0" y="0" width="359" height="329"></rect>
        <mask id="mask-2" maskContentUnits="userSpaceOnUse" maskUnits="objectBoundingBox" x="0" y="0" width="359" height="329" fill="white">
            <use xlink:href="#path-1"></use>
        </mask>
    </defs>
    <g id="variations-SVG" stroke="none" stroke-width="1" fill="none" fill-rule="evenodd">
        <g id="ears" transform="translate(0.000000, -549.000000)">
            <g id="2" transform="translate(0.000000, 549.000000)">
                <g>
                    <use id="Rectangle" stroke="#FFFFFF" mask="url(#mask-2)" stroke-width="2" opacity="0.01" xlink:href="#path-1"></use>
                    <path d="M215,193 C194,196 175,193 153,193 C131,193 109.204811,178.832558 109.206594,178.834236 C95.2901908,167.555552 87.0002622,173.142626 87,187 C86.9997378,197.148948 101.378191,215.326547 104.582627,221.612115 C106.718401,225.801611 105.735281,231.836089 112.073244,232.07155 C114.463334,232.16029 116.006772,230.379818 116.006772,230.379818 L243.171653,230.379818 C243.171653,230.379818 244.71509,232.16029 247.105181,232.07155 C253.443117,231.836089 252.722233,225.801585 254.858034,221.612115 C258.062469,215.326547 278,191 273,178.834236 C267.35335,165.095074 236,190 215,193 Z" id="body_color_path" fill="#E8AC83" fill-rule="nonzero"></path>
                </g>
            </g>
        </g>
    </g>
</svg>