<?xml version="1.0" encoding="UTF-8"?>
<svg width="359px" height="329px" viewBox="0 0 359 329" version="1.1" xmlns="http://www.w3.org/2000/svg" xmlns:xlink="http://www.w3.org/1999/xlink">
    <!-- Generator: Sketch 42 (36781) - http://www.bohemiancoding.com/sketch -->
    <title>ear_3</title>
    <desc>Created with Sketch.</desc>
    <defs>
        <rect id="path-1" x="0" y="0" width="359" height="329"></rect>
        <mask id="mask-2" maskContentUnits="userSpaceOnUse" maskUnits="objectBoundingBox" x="0" y="0" width="359" height="329" fill="white">
            <use xlink:href="#path-1"></use>
        </mask>
    </defs>
    <g id="variations-SVG" stroke="none" stroke-width="1" fill="none" fill-rule="evenodd">
        <g id="ears" transform="translate(0.000000, -1095.000000)">
            <g id="3" transform="translate(0.000000, 1095.000000)">
                <g id="ear_3">
                    <path d="M179.634055,198.14356 C179.084752,197.976161 178.526711,197.875718 177.962625,197.849021 C169.904242,197.467638 161.68594,197 153,197 C131,197 109.204811,182.832558 109.206594,182.834236 C95.2901908,171.555552 87.2415122,172.323138 87.24125,186.180512 C87.2409877,196.32946 97.3781909,218.326547 100.582627,224.612115 C102.718401,228.801611 104,240 110.073244,235.07155 C111.028232,234.296576 116.006772,234.379818 116.006772,234.379818 C136.693086,234.379818 157.379399,234.379818 178.065713,234.379818 C178.607785,234.379818 179.130419,234.357391 179.634055,234.313649 C180.137692,234.357391 180.660326,234.379818 181.202398,234.379818 L243.261339,234.379818 C243.261339,234.379818 248.239879,234.296576 249.194867,235.07155 C255.268111,240 256.54971,228.801611 258.685484,224.612115 C261.88992,218.326547 272.027123,196.32946 272.026861,186.180512 C272.026599,172.323138 263.97792,171.555552 250.061517,182.834236 C250.0633,182.832558 228.268111,197 206.268111,197 C197.582171,197 189.363868,197.467638 181.305486,197.849021 C180.741399,197.875718 180.183359,197.976161 179.634055,198.14356 Z" id="body_color_path" fill="#D9A27D" fill-rule="nonzero"></path>
                    <use id="Rectangle" stroke="#FFFFFF" mask="url(#mask-2)" stroke-width="2" opacity="0.01" xlink:href="#path-1"></use>
                </g>
            </g>
        </g>
    </g>
</svg>