<?xml version="1.0" encoding="UTF-8"?>
<svg width="359px" height="329px" viewBox="0 0 359 329" version="1.1" xmlns="http://www.w3.org/2000/svg" xmlns:xlink="http://www.w3.org/1999/xlink">
    <!-- Generator: Sketch 42 (36781) - http://www.bohemiancoding.com/sketch -->
    <title>1</title>
    <desc>Created with Sketch.</desc>
    <defs>
        <rect id="path-1" x="0" y="0" width="359" height="329"></rect>
        <mask id="mask-2" maskContentUnits="userSpaceOnUse" maskUnits="objectBoundingBox" x="0" y="0" width="359" height="329" fill="white">
            <use xlink:href="#path-1"></use>
        </mask>
        <path d="M74.4178312,7.76140012 C71.93587,7.65246146 69.3358278,7.0797979 66.6627693,5.5954871 C60.25889,2.03951609 44.110741,0.0611460671 39.2919701,0.0603759947 C25.7181627,0.0572953035 12.3548885,0.5138431 0.0604854208,2.3947489 L0.468646714,11.6119125 C3.98269649,12.8990922 5.05339623,15.3034676 5.53464594,18.2059142 C7.75279065,31.5836561 10.8619522,42.9602553 16.6510327,47.6382658 C20.7623994,50.9605568 25.9282708,53.8553027 35.5945072,53.5584284 C45.8916253,53.2421776 56.8307399,50.4065916 62.1970064,44.1968709 C66.9081349,38.7452617 71.8221607,30.3578916 73.60151,21.190061 C74.2719387,17.7357278 76.7109045,16.2084609 79.4838298,16.2084609 C82.2567485,16.2084609 84.6957208,17.7357278 85.3661496,21.190061 C87.1454922,30.3578916 92.0595247,38.7452617 96.7706532,44.1968709 C102.13692,50.4065916 113.076034,53.2421776 123.373146,53.5584284 C133.039387,53.8553027 138.205259,50.9605568 142.316626,47.6382658 C148.105706,42.9602553 151.214867,31.5836561 153.433008,18.2059142 C153.914262,15.3034676 154.984959,12.8990922 158.499014,11.6119125 L158.907171,2.3947489 C146.612769,0.5138431 133.249492,0.0572955711 119.675689,0.0603759947 C114.856912,0.0611460002 98.7087629,2.03951609 92.3048902,5.5954871 C89.6318318,7.0797979 87.0317829,7.65246146 84.5498283,7.76140012 C81.175733,7.90949854 77.7919266,7.90949854 74.4178312,7.76140012 L74.4178312,7.76140012 Z M34.8982357,4.70505616 C37.8967975,4.69966545 40.933476,4.77236314 43.8057476,4.72908334 C46.2912329,4.69165639 63.4155115,4.2233263 66.1825768,14.4997578 C68.8200549,24.2949214 64.9078278,36.7481396 56.5787868,43.7877149 C50.7752966,48.6927439 27.9362466,54.0156839 18.979952,43.4989267 C12.8413856,36.2908372 11.5426386,29.7508349 10.8887587,20.684643 C10.4745278,14.9412961 11.948879,9.08118655 21.3088706,6.10082829 C25.0278193,4.91665723 29.9006216,4.71371983 34.8982357,4.70501769 L34.8982357,4.70505616 Z M113.601291,4.70505616 C114.312813,4.70120546 114.851219,4.72446277 115.161905,4.72908334 C118.034177,4.77236314 121.070862,4.69966545 124.069424,4.70505616 C129.067038,4.71375836 133.939837,4.9166957 137.658784,6.10086683 C147.018777,9.08122469 148.493126,14.9413342 148.078896,20.6846812 C147.425019,29.7508737 146.126269,36.290876 139.987705,43.4989655 C131.031411,54.0157227 108.192363,48.6927827 102.388866,43.7877537 C94.0598318,36.7481784 90.147598,24.2949602 92.7850761,14.4997966 C95.2062616,5.50791874 108.62069,4.73083917 113.601291,4.70505616 L113.601291,4.70505616 Z M4.07006781,6.87096925 L11.056825,6.87096925 L11.056825,8.53150227 L4.07006781,8.53150227 L4.07006781,6.87096925 Z M147.910831,6.87096925 L154.897586,6.87096925 L154.897586,8.53150227 L147.910831,8.53150227 L147.910831,6.87096925 Z" id="path-3333"></path>
        <mask id="mask-4" maskContentUnits="userSpaceOnUse" maskUnits="objectBoundingBox" x="-1" y="-1" width="160.846685" height="55.5190654">
            <rect x="-0.939514579" y="-0.939639456" width="160.846685" height="55.5190654" fill="white"></rect>
            <use xlink:href="#path-3333" fill="black"></use>
        </mask>
    </defs>
    <g id="variations-SVG" stroke="none" stroke-width="1" fill="none" fill-rule="evenodd">
        <g id="eyes" transform="translate(0.000000, -582.000000)">
            <g id="2" transform="translate(0.000000, 562.000000)">
                <g id="1" transform="translate(0.000000, 20.000000)">
                    <use id="Rectangle" stroke="#FFFFFF" mask="url(#mask-2)" stroke-width="2" opacity="0.0128736428" xlink:href="#path-1"></use>
                    <g id="glasses_1" transform="translate(101.000000, 161.000000)" fill-rule="nonzero">
                        <g id="svg2">
                            <g id="layer1" transform="translate(0.006257, 0.006538)">
                                <g id="path2998">
                                    <use fill="#FFFFFF" fill-rule="evenodd" xlink:href="#path-3333"></use>
                                    <use stroke="#6F6F6F" mask="url(#mask-4)" stroke-width="2" xlink:href="#path-3333"></use>
                                </g>
                            </g>
                        </g>
                    </g>
                </g>
            </g>
        </g>
    </g>
</svg>