<?xml version="1.0" encoding="UTF-8"?>
<svg width="359px" height="329px" viewBox="0 0 359 329" version="1.1" xmlns="http://www.w3.org/2000/svg" xmlns:xlink="http://www.w3.org/1999/xlink">
    <!-- Generator: Sketch 42 (36781) - http://www.bohemiancoding.com/sketch -->
    <title>2</title>
    <desc>Created with Sketch.</desc>
    <defs>
        <rect id="path-1" x="0" y="0" width="359" height="329"></rect>
        <mask id="mask-2" maskContentUnits="userSpaceOnUse" maskUnits="objectBoundingBox" x="0" y="0" width="359" height="329" fill="white">
            <use xlink:href="#path-1"></use>
        </mask>
    </defs>
    <g id="variations-SVG" stroke="none" stroke-width="1" fill="none" fill-rule="evenodd">
        <g id="eyes" transform="translate(0.000000, -1183.000000)">
            <g id="3" transform="translate(0.000000, 1163.000000)">
                <g id="2" transform="translate(0.000000, 20.000000)">
                    <g id="glasses_2" transform="translate(113.000000, 172.000000)" fill-rule="nonzero" fill="#303030">
                        <g id="layer1" transform="translate(0.000000, 0.225656)">
                            <g id="g4764" transform="translate(0.157692, 0.079731)">
                                <path d="M3.79563922,5.44745709 C1.79098972,9.42763742 2.0664911,12.4673522 2.27833278,16.2270738 L2.91120293,16.8288396 L5.73855096,25.6641752 C11.4254928,28.8535478 21.5486718,29.7519191 28.3866851,30.3821686 C35.3809105,30.7129753 45.9367064,30.5074678 50.8289737,28.2654986 L54.6878991,19.1000568 L55.6166377,18.4161652 C56.187432,15.888367 56.5482222,13.9399642 55.5232124,11.1508406 C38.3753938,4.19133433 6.11416781,2.92979148 3.79563922,5.44745709 Z M5.13890649,25.9802641 C5.13890649,25.9802641 3.80779149,22.1440136 2.47945044,18.5727856 C2.14473503,17.6729072 1.21750902,17.8548415 1.00510454,16.8734351 C-0.0898234782,11.8143679 -0.0187977655,4.79690335 1.7214068,2.35197395 C5.13890614,-2.44949686 56.1295254,0.937398124 58.6797272,7.40615524 C59.4991666,9.48471831 58.3025988,15.3804942 56.755189,19.3998783 C56.5295804,19.9858932 55.6533614,19.6747751 55.3994959,20.2304523 C53.4797989,24.4323757 51.5914918,28.5073689 51.5915839,28.5073547 C45.946084,33.2037774 9.56899829,31.1607988 5.13890649,25.9802641 Z" id="path4766"></path>
                                <path d="M58.2850876,13.4244743 C63.3590737,10.7063074 68.5896938,10.8779463 73.2026349,13.4849091 L72.6549445,8.02615192 C72.6948259,9.73133294 58.7882007,9.73986642 58.8351455,8.13578515 C58.3106758,9.01169767 58.3403645,11.5277641 58.2850876,13.4244743 Z" id="path4770"></path>
                                <g id="use4772" transform="translate(102.024148, 16.000000) scale(-1, 1) translate(-102.024148, -16.000000) translate(72.524148, 0.000000)">
                                    <path d="M3.79563922,5.44745709 C1.79098972,9.42763742 2.0664911,12.4673522 2.27833278,16.2270738 L2.91120293,16.8288396 L5.73855096,25.6641752 C11.4254928,28.8535478 21.5486718,29.7519191 28.3866851,30.3821686 C35.3809105,30.7129753 45.9367064,30.5074678 50.8289737,28.2654986 L54.6878991,19.1000568 L55.6166377,18.4161652 C56.187432,15.888367 56.5482222,13.9399642 55.5232124,11.1508406 C38.3753938,4.19133433 6.11416781,2.92979148 3.79563922,5.44745709 Z M5.13890649,25.9802641 C5.13890649,25.9802641 3.80779149,22.1440136 2.47945044,18.5727856 C2.14473503,17.6729072 1.21750902,17.8548415 1.00510454,16.8734351 C-0.0898234782,11.8143679 -0.0187977655,4.79690335 1.7214068,2.35197395 C5.13890614,-2.44949686 56.1295254,0.937398124 58.6797272,7.40615524 C59.4991666,9.48471831 58.3025988,15.3804942 56.755189,19.3998783 C56.5295804,19.9858932 55.6533614,19.6747751 55.3994959,20.2304523 C53.4797989,24.4323757 51.5914918,28.5073689 51.5915839,28.5073547 C45.946084,33.2037774 9.56899829,31.1607988 5.13890649,25.9802641 Z" id="path4766"></path>
                                </g>
                            </g>
                        </g>
                    </g>
                    <use id="Rectangle" stroke="#FFFFFF" mask="url(#mask-2)" stroke-width="2" opacity="0.01" xlink:href="#path-1"></use>
                </g>
            </g>
        </g>
    </g>
</svg>