<?xml version="1.0" encoding="UTF-8"?>
<svg width="359px" height="329px" viewBox="0 0 359 329" version="1.1" xmlns="http://www.w3.org/2000/svg" xmlns:xlink="http://www.w3.org/1999/xlink">
    <!-- Generator: Sketch 42 (36781) - http://www.bohemiancoding.com/sketch -->
    <title>3</title>
    <desc>Created with Sketch.</desc>
    <defs>
        <rect id="path-1" x="0" y="0" width="359" height="329"></rect>
        <mask id="mask-2" maskContentUnits="userSpaceOnUse" maskUnits="objectBoundingBox" x="0" y="0" width="359" height="329" fill="white">
            <use xlink:href="#path-1"></use>
        </mask>
    </defs>
    <g id="variations-SVG" stroke="none" stroke-width="1" fill="none" fill-rule="evenodd">
        <g id="eyes" transform="translate(0.000000, -1884.000000)">
            <g id="4" transform="translate(0.000000, 1864.000000)">
                <g id="3" transform="translate(0.000000, 20.000000)">
                    <g id="glasses_2" transform="translate(113.000000, 169.000000)">
                        <g id="layer1" transform="translate(0.000000, 0.225656)">
                            <g id="g4764" transform="translate(0.157692, 0.079731)">
                                <path d="M4.84230822,8.69461335 C2.83765872,12.6747937 3.58379754,15.9348918 3.79563922,19.6946133 C4.00748089,23.4543349 7.84230822,29.6946133 10.8423082,31.6946133 C13.8423082,33.6946133 21.5486718,35.7519191 28.3866851,36.3821686 C35.3809105,36.7129753 44.8423082,35.6946133 49.8289737,31.2654986 C54.8156392,26.8363838 56.8423082,17.9114332 54.5232124,14.1508406 C52.2041166,10.3902481 7.16083682,6.17694774 4.84230822,8.69461335 Z M7.84230822,33.6946133 C5.84230822,31.6946133 1.84230822,24.6946133 1.00510454,19.8734351 C0.167900864,15.0522569 0.102103662,5.13954275 1.84230822,2.69461335 C5.25980756,-2.10685746 54.0048892,1.98307146 58.8423082,8.69461335 C60.2659671,10.6698291 57.8423082,30.6946133 51.8423082,34.6946133 C48.9275106,36.6378117 38.7981765,40.4436103 28.6439326,40.1645638 C17.8960516,39.8692037 9.84230822,35.6946133 7.84230822,33.6946133 Z" id="path4766" fill="#303030" fill-rule="nonzero"></path>
                                <path d="M75.8423082,8.69461335 C73.8376587,12.6747937 74.5837975,15.9348918 74.7956392,19.6946133 C75.0074809,23.4543349 78.8423082,29.6946133 81.8423082,31.6946133 C84.8423082,33.6946133 92.5486718,35.7519191 99.3866851,36.3821686 C106.38091,36.7129753 115.842308,35.6946133 120.828974,31.2654986 C125.815639,26.8363838 127.842308,17.9114332 125.523212,14.1508406 C123.204117,10.3902481 78.1608368,6.17694774 75.8423082,8.69461335 Z M78.8423082,33.6946133 C76.8423082,31.6946133 72.8423082,24.6946133 72.0051045,19.8734351 C71.1679009,15.0522569 71.1021037,5.13954275 72.8423082,2.69461335 C76.2598076,-2.10685746 125.004889,1.98307146 129.842308,8.69461335 C131.265967,10.6698291 128.842308,30.6946133 122.842308,34.6946133 C119.927511,36.6378117 109.798176,40.4436103 99.6439326,40.1645638 C88.8960516,39.8692037 80.8423082,35.6946133 78.8423082,33.6946133 Z" id="path4766" fill="#303030" fill-rule="nonzero" transform="translate(100.837114, 20.391844) scale(-1, 1) translate(-100.837114, -20.391844) "></path>
                                <path d="M58.2850876,16.4244743 C63.3590737,13.7063074 68.5896938,13.8779463 73.2026349,16.4849091 L72.6549445,11.0261519 C72.6948259,12.7313329 58.7882007,12.7398664 58.8351455,11.1357852 C58.3106758,12.0116977 58.3403645,14.5277641 58.2850876,16.4244743 Z" id="path4770" fill="#303030" fill-rule="nonzero"></path>
                                <g id="use4772" transform="translate(102.024148, 19.000000) scale(-1, 1) translate(-102.024148, -19.000000) translate(72.524148, 3.000000)"></g>
                            </g>
                        </g>
                    </g>
                    <use id="Rectangle" stroke="#FFFFFF" mask="url(#mask-2)" stroke-width="2" opacity="0.01" xlink:href="#path-1"></use>
                </g>
            </g>
        </g>
    </g>
</svg>